<svg width="293" height="282" viewBox="0 0 293 282" fill="none" xmlns="http://www.w3.org/2000/svg">
<path d="M250.187 182.572L249.73 186.52L257.705 177.547C258.659 177.643 259.618 177.692 260.577 177.694" stroke="#263238" stroke-linecap="round" stroke-linejoin="round"/>
<path d="M240.196 155.343C239.148 156.864 238.491 158.604 238.28 160.419C237.524 166.978 242.868 173.182 250.943 176.053L250.533 179.578" stroke="#263238" stroke-linecap="round" stroke-linejoin="round"/>
<path d="M243.296 152.077C242.776 152.482 242.283 152.917 241.819 153.38" stroke="#263238" stroke-linecap="round" stroke-linejoin="round"/>
<path d="M273.205 152.077C269.564 149.676 265.355 148.194 260.963 147.768C256.322 147.221 251.614 147.887 247.333 149.697" stroke="#263238" stroke-linecap="round" stroke-linejoin="round"/>
<path d="M266.126 177.164C273.744 175.647 279.516 170.96 280.19 164.88C280.682 160.627 278.614 156.527 274.916 153.38" stroke="#263238" stroke-linecap="round" stroke-linejoin="round"/>
<path d="M247.339 156.437C247.984 156.552 248.646 156.544 249.288 156.413C249.929 156.281 250.538 156.028 251.078 155.67L253.926 157.796C253.726 157.858 253.744 157.452 253.955 157.441C254.166 157.429 254.324 157.615 254.47 157.762C255.139 158.445 256.264 158.467 257.219 158.27C258.174 158.072 259.106 157.706 260.079 157.74C260.657 157.798 261.226 157.925 261.772 158.117C265.687 159.285 269.759 159.871 273.814 160.447" stroke="#263238" stroke-linecap="round" stroke-linejoin="round"/>
<path d="M243.976 160.447C244.562 160.413 247.826 160.447 248.294 160.069L249.091 161.406L249.97 160.588C250.123 161.152 250.275 161.716 250.422 162.246C251.084 162.398 251.008 161.169 251.594 160.802C251.774 160.717 251.981 160.701 252.173 160.756C252.365 160.811 252.529 160.935 252.631 161.101C252.823 161.447 252.916 161.837 252.9 162.229L256.909 162.545L257.688 162.607C257.967 162.198 258.379 161.89 258.86 161.733C258.713 162.624 259.88 163.131 260.806 163.312C265.365 164.207 269.947 164.979 274.553 165.63" stroke="#263238" stroke-linecap="round" stroke-linejoin="round"/>
<path d="M245.757 166.572C246.126 166.82 246.577 166.357 247.028 166.301C247.48 166.245 247.849 166.572 248.247 166.769C248.646 166.967 249.302 166.882 249.326 166.453C249.419 167.017 250.146 167.22 250.738 167.299L266.126 169.38" stroke="#263238" stroke-linecap="round" stroke-linejoin="round"/>
<path d="M39.8481 147.305L46.0129 155.292L44.7764 144.841C46.2503 144.152 47.66 143.343 48.9897 142.421C55.3068 138.022 57.8501 130.944 55.5354 125.242C53.9121 121.26 50.109 118.553 45.3038 117.43" stroke="#263238" stroke-linecap="round" stroke-linejoin="round"/>
<path d="M15.4998 134.706C15.3077 136.515 15.5648 138.341 16.2499 140.036C18.7463 146.183 26.4697 149.285 35.0019 148.214" stroke="#263238" stroke-linecap="round" stroke-linejoin="round"/>
<path d="M16.6661 130.425C16.4043 131.017 16.1793 131.623 15.9922 132.241" stroke="#263238" stroke-linecap="round" stroke-linejoin="round"/>
<path d="M43.153 117.047C38.7686 116.543 34.3228 117.109 30.2258 118.694C25.853 120.285 22.0067 122.982 19.0918 126.5" stroke="#263238" stroke-linecap="round" stroke-linejoin="round"/>
<path d="M22.3501 132.472C23.6107 132.094 24.6642 131.25 25.2801 130.126L28.7961 130.735C28.6437 130.876 28.4679 130.51 28.6496 130.402C28.8313 130.295 29.0598 130.402 29.2356 130.459C30.1615 130.763 31.1635 130.284 31.9136 129.681C32.6637 129.077 33.3083 128.327 34.1932 127.932C34.7337 127.724 35.2984 127.58 35.875 127.503C39.9067 126.793 43.7918 125.484 47.6653 124.182" stroke="#263238" stroke-linecap="round" stroke-linejoin="round"/>
<path d="M21.3071 137.531C21.8287 137.233 24.7176 135.806 24.952 135.275L26.3057 136.105C26.4346 135.732 26.5635 135.354 26.6866 134.977L27.8879 136.246C28.5501 136.088 27.8879 135.033 28.2043 134.458C28.3222 134.301 28.4973 134.194 28.6942 134.158C28.8911 134.121 29.0951 134.158 29.265 134.26C29.5997 134.476 29.8686 134.774 30.0444 135.123L33.7421 133.612L34.4687 133.318C34.5103 132.834 34.7162 132.376 35.0547 132.016C35.3594 132.878 36.6369 132.799 37.5393 132.546C42.0125 131.305 46.4446 129.94 50.8357 128.451" stroke="#263238" stroke-linecap="round" stroke-linejoin="round"/>
<path d="M25.8428 142.156C26.294 142.213 26.4698 141.592 26.839 141.344C27.2082 141.096 27.7004 141.226 28.1458 141.214C28.5911 141.203 29.1361 140.848 28.9486 140.459C29.306 140.915 30.0503 140.769 30.607 140.577L45.257 135.529" stroke="#263238" stroke-linecap="round" stroke-linejoin="round"/>
<path d="M218.537 50.5457H72.4239C69.5791 50.5457 67.2729 52.7652 67.2729 55.5032V182.189C67.2729 184.927 69.5791 187.146 72.4239 187.146H218.537C221.382 187.146 223.688 184.927 223.688 182.189V55.5032C223.688 52.7652 221.382 50.5457 218.537 50.5457Z" fill="white"/>
<path opacity="0.2" d="M223.688 125.371V182.335C223.688 183.61 223.162 184.833 222.226 185.735C221.29 186.637 220.02 187.145 218.695 187.146H72.2715C70.9458 187.146 69.6744 186.64 68.737 185.737C67.7996 184.835 67.2729 183.611 67.2729 182.335V171.055H67.5835V178.658C67.5835 179.381 67.7315 180.096 68.019 180.764C68.3065 181.431 68.7279 182.038 69.259 182.549C69.7902 183.059 70.4208 183.464 71.1146 183.74C71.8085 184.016 72.5521 184.158 73.3029 184.157H214.757C215.508 184.158 216.252 184.016 216.946 183.74C217.64 183.464 218.27 183.059 218.801 182.549C219.332 182.038 219.754 181.431 220.041 180.764C220.329 180.096 220.477 179.381 220.477 178.658V133.82C220.477 132.805 220.058 131.83 219.311 131.112C218.565 130.394 217.553 129.991 216.498 129.991H67.2729V125.371H223.688Z" fill="black"/>
<path d="M218.537 50.5457H72.4239C69.5791 50.5457 67.2729 52.7652 67.2729 55.5032V182.189C67.2729 184.927 69.5791 187.146 72.4239 187.146H218.537C221.382 187.146 223.688 184.927 223.688 182.189V55.5032C223.688 52.7652 221.382 50.5457 218.537 50.5457Z" stroke="#263238" stroke-linecap="round" stroke-linejoin="round"/>
<path d="M210.069 141.592V135.067C210.07 134.749 210.006 134.435 209.88 134.142C209.754 133.849 209.57 133.582 209.337 133.358C209.104 133.134 208.827 132.956 208.522 132.835C208.217 132.714 207.891 132.652 207.561 132.653H83.3997C82.7345 132.653 82.0966 132.907 81.6262 133.36C81.1559 133.812 80.8916 134.426 80.8916 135.067V141.592C80.8916 142.232 80.6274 142.846 80.1571 143.299C79.6867 143.752 79.0487 144.006 78.3836 144.006C77.7168 144.006 77.0774 144.261 76.6059 144.715C76.1345 145.168 75.8696 145.784 75.8696 146.426V159.302C75.8696 162.271 77.0952 165.119 79.2766 167.218C81.458 169.318 84.4167 170.497 87.5017 170.497C87.9975 170.497 88.473 170.687 88.8235 171.024C89.1741 171.362 89.3711 171.819 89.3711 172.296V176.154C89.3711 177.578 89.9588 178.944 91.005 179.951C92.0512 180.958 93.4702 181.523 94.9498 181.523H196.011C197.491 181.523 198.91 180.958 199.956 179.951C201.002 178.944 201.59 177.578 201.59 176.154V172.296C201.59 171.819 201.787 171.362 202.138 171.024C202.488 170.687 202.964 170.497 203.459 170.497C204.987 170.497 206.5 170.208 207.911 169.645C209.322 169.082 210.604 168.258 211.685 167.218C212.765 166.179 213.621 164.944 214.206 163.586C214.791 162.228 215.091 160.772 215.091 159.302V146.426C215.091 145.785 214.827 145.17 214.357 144.717C213.887 144.263 213.249 144.008 212.583 144.006C211.918 144.006 211.279 143.752 210.808 143.299C210.337 142.847 210.071 142.233 210.069 141.592Z" fill="#263238"/>
<path d="M90.402 136.347H86.0598C85.5283 136.347 85.0185 136.55 84.6427 136.912C84.2668 137.274 84.0557 137.764 84.0557 138.276V139.347C84.0557 141.57 85.925 144.39 88.2338 144.39C90.5427 144.39 92.412 141.57 92.412 139.347V138.276C92.4105 137.764 92.198 137.273 91.8212 136.912C91.4445 136.55 90.9341 136.347 90.402 136.347Z" fill="white" stroke="#263238" stroke-linecap="round" stroke-linejoin="round"/>
<path d="M100.792 136.347H96.4499C95.9179 136.347 95.4075 136.55 95.0307 136.912C94.6539 137.273 94.4415 137.764 94.4399 138.276V139.347C94.4399 141.57 96.3093 144.39 98.6181 144.39C100.927 144.39 102.796 141.57 102.796 139.347V138.276C102.796 137.764 102.585 137.274 102.209 136.912C101.833 136.55 101.324 136.347 100.792 136.347Z" fill="white" stroke="#263238" stroke-linecap="round" stroke-linejoin="round"/>
<path d="M111.223 136.347H106.881C106.349 136.347 105.839 136.55 105.463 136.912C105.088 137.274 104.876 137.764 104.876 138.276V139.347C104.876 141.57 106.746 144.39 109.049 144.39C111.352 144.39 113.227 141.57 113.227 139.347V138.276C113.227 137.764 113.016 137.274 112.64 136.912C112.264 136.55 111.754 136.347 111.223 136.347Z" fill="white" stroke="#263238" stroke-linecap="round" stroke-linejoin="round"/>
<path d="M121.63 136.347H117.288C116.756 136.347 116.247 136.55 115.871 136.912C115.495 137.274 115.284 137.764 115.284 138.276V139.347C115.284 141.57 117.153 144.39 119.462 144.39C121.771 144.39 123.634 141.57 123.634 139.347V138.276C123.634 138.022 123.582 137.772 123.482 137.538C123.381 137.304 123.233 137.091 123.047 136.912C122.861 136.733 122.64 136.591 122.397 136.494C122.154 136.397 121.893 136.347 121.63 136.347Z" fill="white" stroke="#263238" stroke-linecap="round" stroke-linejoin="round"/>
<path d="M132.038 136.347H127.696C127.164 136.347 126.654 136.55 126.278 136.912C125.903 137.274 125.691 137.764 125.691 138.276V139.347C125.691 141.57 127.561 144.39 129.87 144.39C132.178 144.39 134.048 141.57 134.048 139.347V138.276C134.046 137.764 133.834 137.273 133.457 136.912C133.08 136.55 132.57 136.347 132.038 136.347Z" fill="white" stroke="#263238" stroke-linecap="round" stroke-linejoin="round"/>
<path d="M142.451 136.347H138.109C137.577 136.347 137.066 136.55 136.689 136.912C136.313 137.273 136.1 137.764 136.099 138.276V139.347C136.099 141.57 137.968 144.39 140.277 144.39C142.586 144.39 144.455 141.57 144.455 139.347V138.276C144.455 137.764 144.244 137.274 143.868 136.912C143.492 136.55 142.982 136.347 142.451 136.347Z" fill="white" stroke="#263238" stroke-linecap="round" stroke-linejoin="round"/>
<path d="M152.858 136.347H148.516C147.984 136.347 147.475 136.55 147.099 136.912C146.723 137.274 146.512 137.764 146.512 138.276V139.347C146.512 141.57 148.381 144.39 150.684 144.39C152.987 144.39 154.862 141.57 154.862 139.347V138.276C154.862 137.764 154.651 137.274 154.275 136.912C153.899 136.55 153.39 136.347 152.858 136.347Z" fill="white" stroke="#263238" stroke-linecap="round" stroke-linejoin="round"/>
<path d="M163.265 136.347H158.923C158.392 136.347 157.882 136.55 157.506 136.912C157.13 137.274 156.919 137.764 156.919 138.276V139.347C156.919 141.57 158.788 144.39 161.097 144.39C163.406 144.39 165.269 141.57 165.269 139.347V138.276C165.269 137.764 165.058 137.274 164.682 136.912C164.307 136.55 163.797 136.347 163.265 136.347Z" fill="white" stroke="#263238" stroke-linecap="round" stroke-linejoin="round"/>
<path d="M173.673 136.347H169.354C169.091 136.347 168.83 136.397 168.587 136.494C168.344 136.591 168.123 136.733 167.937 136.912C167.751 137.091 167.603 137.304 167.503 137.538C167.402 137.772 167.35 138.023 167.35 138.276V139.347C167.35 141.57 169.219 144.39 171.528 144.39C173.837 144.39 175.706 141.57 175.706 139.347V138.276C175.706 138.02 175.652 137.768 175.55 137.532C175.447 137.296 175.296 137.083 175.107 136.904C174.918 136.724 174.694 136.583 174.448 136.487C174.202 136.392 173.938 136.344 173.673 136.347Z" fill="white" stroke="#263238" stroke-linecap="round" stroke-linejoin="round"/>
<path d="M184.086 136.347H179.744C179.212 136.347 178.701 136.55 178.325 136.912C177.948 137.273 177.735 137.764 177.734 138.276V139.347C177.734 141.57 179.603 144.39 181.912 144.39C184.221 144.39 186.09 141.57 186.09 139.347V138.276C186.09 137.764 185.879 137.274 185.503 136.912C185.127 136.55 184.618 136.347 184.086 136.347Z" fill="white" stroke="#263238" stroke-linecap="round" stroke-linejoin="round"/>
<path d="M194.493 136.347H190.151C189.62 136.347 189.11 136.55 188.734 136.912C188.358 137.274 188.147 137.764 188.147 138.276V139.347C188.147 141.57 190.016 144.39 192.319 144.39C194.622 144.39 196.497 141.57 196.497 139.347V138.276C196.497 137.764 196.286 137.274 195.91 136.912C195.535 136.55 195.025 136.347 194.493 136.347Z" fill="white" stroke="#263238" stroke-linecap="round" stroke-linejoin="round"/>
<path d="M204.901 136.347H200.559C200.027 136.347 199.518 136.55 199.142 136.912C198.766 137.274 198.555 137.764 198.555 138.276V139.347C198.555 141.564 200.412 144.384 202.756 144.384C205.1 144.384 206.929 141.564 206.929 139.342V138.27C206.928 138.015 206.875 137.763 206.772 137.529C206.67 137.294 206.52 137.081 206.331 136.902C206.143 136.723 205.919 136.582 205.674 136.487C205.428 136.391 205.166 136.344 204.901 136.347Z" fill="white" stroke="#263238" stroke-linecap="round" stroke-linejoin="round"/>
<path d="M90.402 157.576H86.0598C85.5283 157.576 85.0185 157.779 84.6427 158.141C84.2668 158.503 84.0557 158.993 84.0557 159.505V160.576C84.0557 162.799 85.925 165.619 88.2338 165.619C90.5427 165.619 92.412 162.799 92.412 160.576V159.505C92.4105 158.993 92.198 158.502 91.8212 158.141C91.4445 157.779 90.9341 157.576 90.402 157.576Z" fill="white" stroke="#263238" stroke-linecap="round" stroke-linejoin="round"/>
<path d="M100.792 157.576H96.4499C95.9179 157.576 95.4075 157.779 95.0307 158.141C94.6539 158.502 94.4415 158.993 94.4399 159.505V160.576C94.4399 162.799 96.3093 165.619 98.6181 165.619C100.927 165.619 102.796 162.799 102.796 160.576V159.505C102.796 158.993 102.585 158.503 102.209 158.141C101.833 157.779 101.324 157.576 100.792 157.576Z" fill="white" stroke="#263238" stroke-linecap="round" stroke-linejoin="round"/>
<path d="M111.223 157.576H106.881C106.349 157.576 105.839 157.779 105.463 158.141C105.088 158.503 104.876 158.993 104.876 159.505V160.576C104.876 162.799 106.746 165.619 109.049 165.619C111.352 165.619 113.227 162.799 113.227 160.576V159.505C113.227 158.993 113.016 158.503 112.64 158.141C112.264 157.779 111.754 157.576 111.223 157.576Z" fill="white" stroke="#263238" stroke-linecap="round" stroke-linejoin="round"/>
<path d="M121.63 157.576H117.288C116.756 157.576 116.247 157.779 115.871 158.141C115.495 158.503 115.284 158.993 115.284 159.505V160.576C115.284 162.799 117.153 165.619 119.462 165.619C121.771 165.619 123.634 162.799 123.634 160.576V159.505C123.634 159.251 123.582 159.001 123.482 158.767C123.381 158.533 123.233 158.32 123.047 158.141C122.861 157.962 122.64 157.82 122.397 157.723C122.154 157.626 121.893 157.576 121.63 157.576Z" fill="white" stroke="#263238" stroke-linecap="round" stroke-linejoin="round"/>
<path d="M132.038 157.576H127.696C127.164 157.576 126.654 157.779 126.278 158.141C125.903 158.503 125.691 158.993 125.691 159.505V160.576C125.691 162.799 127.561 165.619 129.87 165.619C132.178 165.619 134.048 162.799 134.048 160.576V159.505C134.046 158.993 133.834 158.502 133.457 158.141C133.08 157.779 132.57 157.576 132.038 157.576Z" fill="white" stroke="#263238" stroke-linecap="round" stroke-linejoin="round"/>
<path d="M142.451 157.576H138.109C137.577 157.576 137.066 157.779 136.689 158.141C136.313 158.502 136.1 158.993 136.099 159.505V160.576C136.099 162.799 137.968 165.619 140.277 165.619C142.586 165.619 144.455 162.799 144.455 160.576V159.505C144.455 158.993 144.244 158.503 143.868 158.141C143.492 157.779 142.982 157.576 142.451 157.576Z" fill="white" stroke="#263238" stroke-linecap="round" stroke-linejoin="round"/>
<path d="M152.858 157.576H148.516C147.984 157.576 147.475 157.779 147.099 158.141C146.723 158.503 146.512 158.993 146.512 159.505V160.576C146.512 162.799 148.381 165.619 150.684 165.619C152.987 165.619 154.862 162.799 154.862 160.576V159.505C154.862 158.993 154.651 158.503 154.275 158.141C153.899 157.779 153.39 157.576 152.858 157.576Z" fill="white" stroke="#263238" stroke-linecap="round" stroke-linejoin="round"/>
<path d="M163.265 157.576H158.923C158.392 157.576 157.882 157.779 157.506 158.141C157.13 158.503 156.919 158.993 156.919 159.505V160.576C156.919 162.799 158.788 165.619 161.097 165.619C163.406 165.619 165.269 162.799 165.269 160.576V159.505C165.269 158.993 165.058 158.503 164.682 158.141C164.307 157.779 163.797 157.576 163.265 157.576Z" fill="white" stroke="#263238" stroke-linecap="round" stroke-linejoin="round"/>
<path d="M173.673 157.576H169.354C169.091 157.576 168.83 157.626 168.587 157.723C168.344 157.82 168.123 157.962 167.937 158.141C167.751 158.32 167.603 158.533 167.503 158.767C167.402 159.001 167.35 159.252 167.35 159.505V160.576C167.35 162.799 169.219 165.619 171.528 165.619C173.837 165.619 175.706 162.799 175.706 160.576V159.505C175.706 159.249 175.652 158.997 175.55 158.761C175.447 158.525 175.296 158.312 175.107 158.133C174.918 157.953 174.694 157.812 174.448 157.716C174.202 157.621 173.938 157.573 173.673 157.576Z" fill="white" stroke="#263238" stroke-linecap="round" stroke-linejoin="round"/>
<path d="M184.086 157.576H179.744C179.212 157.576 178.701 157.779 178.325 158.141C177.948 158.502 177.735 158.993 177.734 159.505V160.576C177.734 162.799 179.603 165.619 181.912 165.619C184.221 165.619 186.09 162.799 186.09 160.576V159.505C186.09 158.993 185.879 158.503 185.503 158.141C185.127 157.779 184.618 157.576 184.086 157.576Z" fill="white" stroke="#263238" stroke-linecap="round" stroke-linejoin="round"/>
<path d="M194.493 157.576H190.151C189.62 157.576 189.11 157.779 188.734 158.141C188.358 158.503 188.147 158.993 188.147 159.505V160.576C188.147 162.799 190.016 165.619 192.319 165.619C194.622 165.619 196.497 162.799 196.497 160.576V159.505C196.497 158.993 196.286 158.503 195.91 158.141C195.535 157.779 195.025 157.576 194.493 157.576Z" fill="white" stroke="#263238" stroke-linecap="round" stroke-linejoin="round"/>
<path d="M204.901 157.576H200.559C200.027 157.576 199.518 157.779 199.142 158.141C198.766 158.503 198.555 158.993 198.555 159.505V160.576C198.555 162.799 200.424 165.619 202.733 165.619C205.042 165.619 206.905 162.799 206.905 160.576V159.505C206.905 158.993 206.694 158.503 206.318 158.141C205.942 157.779 205.433 157.576 204.901 157.576Z" fill="white" stroke="#263238" stroke-linecap="round" stroke-linejoin="round"/>
<path d="M85.1984 147.305H80.8679C80.3364 147.305 79.8266 147.509 79.4508 147.87C79.0749 148.232 78.8638 148.723 78.8638 149.234V150.306C78.8638 152.522 80.7331 155.348 83.0419 155.348C85.3508 155.348 87.2143 152.528 87.2143 150.306V149.234C87.2143 148.98 87.162 148.728 87.0606 148.494C86.9591 148.259 86.8105 148.046 86.6231 147.866C86.4358 147.687 86.2135 147.545 85.969 147.449C85.7245 147.353 85.4626 147.304 85.1984 147.305Z" fill="white" stroke="#263238" stroke-linecap="round" stroke-linejoin="round"/>
<path d="M95.6061 147.305H91.2639C90.7324 147.305 90.2226 147.509 89.8468 147.87C89.4709 148.232 89.2598 148.723 89.2598 149.234V150.306C89.2598 152.522 91.1291 155.348 93.4379 155.348C95.7468 155.348 97.6161 152.528 97.6161 150.306V149.234C97.6146 148.722 97.4021 148.232 97.0253 147.87C96.6486 147.508 96.1382 147.305 95.6061 147.305Z" fill="white" stroke="#263238" stroke-linecap="round" stroke-linejoin="round"/>
<path d="M106.019 147.305H101.677C101.145 147.305 100.635 147.508 100.258 147.87C99.881 148.232 99.6685 148.722 99.667 149.234V150.306C99.667 152.522 101.542 155.348 103.845 155.348C106.148 155.348 108.023 152.528 108.023 150.306V149.234C108.023 148.723 107.812 148.232 107.436 147.87C107.061 147.509 106.551 147.305 106.019 147.305Z" fill="white" stroke="#263238" stroke-linecap="round" stroke-linejoin="round"/>
<path d="M116.426 147.305H112.084C111.553 147.305 111.043 147.509 110.667 147.87C110.291 148.232 110.08 148.723 110.08 149.234V150.306C110.08 152.522 111.949 155.348 114.252 155.348C116.555 155.348 118.431 152.528 118.431 150.306V149.234C118.431 148.981 118.379 148.73 118.278 148.496C118.177 148.262 118.03 148.049 117.844 147.87C117.657 147.691 117.437 147.549 117.193 147.452C116.95 147.355 116.69 147.305 116.426 147.305Z" fill="white" stroke="#263238" stroke-linecap="round" stroke-linejoin="round"/>
<path d="M126.834 147.305H122.474C121.942 147.305 121.433 147.509 121.057 147.87C120.681 148.232 120.47 148.723 120.47 149.234V150.306C120.47 152.522 122.339 155.348 124.648 155.348C126.957 155.348 128.82 152.528 128.82 150.306V149.234C128.82 148.726 128.612 148.238 128.239 147.876C127.867 147.515 127.362 147.31 126.834 147.305Z" fill="white" stroke="#263238" stroke-linecap="round" stroke-linejoin="round"/>
<path d="M137.241 147.305H132.899C132.368 147.305 131.858 147.509 131.482 147.87C131.106 148.232 130.895 148.723 130.895 149.234V150.306C130.895 152.522 132.764 155.348 135.073 155.348C137.382 155.348 139.251 152.528 139.251 150.306V149.234C139.25 148.722 139.037 148.232 138.661 147.87C138.284 147.508 137.773 147.305 137.241 147.305Z" fill="white" stroke="#263238" stroke-linecap="round" stroke-linejoin="round"/>
<path d="M147.672 147.305H143.33C142.798 147.305 142.287 147.508 141.911 147.87C141.534 148.232 141.321 148.722 141.32 149.234V150.306C141.32 152.522 143.195 155.348 145.498 155.348C147.801 155.348 149.676 152.528 149.676 150.306V149.234C149.676 148.723 149.465 148.232 149.089 147.87C148.713 147.509 148.204 147.305 147.672 147.305Z" fill="white" stroke="#263238" stroke-linecap="round" stroke-linejoin="round"/>
<path d="M158.062 147.305H153.719C153.188 147.305 152.678 147.509 152.302 147.87C151.926 148.232 151.715 148.723 151.715 149.234V150.306C151.715 152.522 153.585 155.348 155.888 155.348C158.191 155.348 160.066 152.528 160.066 150.306V149.234C160.066 148.723 159.855 148.232 159.479 147.87C159.103 147.509 158.593 147.305 158.062 147.305Z" fill="white" stroke="#263238" stroke-linecap="round" stroke-linejoin="round"/>
<path d="M168.469 147.305H164.127C163.595 147.305 163.085 147.509 162.71 147.87C162.334 148.232 162.123 148.723 162.123 149.234V150.306C162.123 152.522 163.992 155.348 166.301 155.348C168.61 155.348 170.473 152.528 170.473 150.306V149.234C170.473 148.723 170.262 148.232 169.886 147.87C169.51 147.509 169 147.305 168.469 147.305Z" fill="white" stroke="#263238" stroke-linecap="round" stroke-linejoin="round"/>
<path d="M178.877 147.305H174.534C174.003 147.305 173.493 147.509 173.117 147.87C172.741 148.232 172.53 148.723 172.53 149.234V150.306C172.53 152.522 174.4 155.348 176.708 155.348C179.017 155.348 180.887 152.528 180.887 150.306V149.234C180.885 148.722 180.673 148.232 180.296 147.87C179.919 147.508 179.409 147.305 178.877 147.305Z" fill="white" stroke="#263238" stroke-linecap="round" stroke-linejoin="round"/>
<path d="M189.278 147.305H184.936C184.404 147.305 183.893 147.508 183.517 147.87C183.14 148.232 182.927 148.722 182.926 149.234V150.306C182.926 152.522 184.801 155.348 187.104 155.348C189.407 155.348 191.282 152.528 191.282 150.306V149.234C191.282 148.723 191.071 148.232 190.695 147.87C190.319 147.509 189.81 147.305 189.278 147.305Z" fill="white" stroke="#263238" stroke-linecap="round" stroke-linejoin="round"/>
<path d="M199.697 147.306H195.355C194.828 147.313 194.326 147.519 193.956 147.88C193.587 148.241 193.38 148.728 193.38 149.234V150.306C193.38 152.522 195.249 155.348 197.552 155.348C199.855 155.348 201.73 152.528 201.73 150.306V149.234C201.73 148.979 201.678 148.726 201.575 148.49C201.473 148.254 201.322 148.04 201.133 147.86C200.944 147.681 200.719 147.539 200.473 147.444C200.226 147.349 199.963 147.302 199.697 147.306Z" fill="white" stroke="#263238" stroke-linecap="round" stroke-linejoin="round"/>
<path d="M210.105 147.305H205.762C205.231 147.305 204.721 147.509 204.345 147.87C203.969 148.232 203.758 148.723 203.758 149.234V150.306C203.758 152.522 205.628 155.348 207.936 155.348C210.245 155.348 212.109 152.528 212.109 150.306V149.234C212.109 148.723 211.898 148.232 211.522 147.87C211.146 147.509 210.636 147.305 210.105 147.305Z" fill="white" stroke="#263238" stroke-linecap="round" stroke-linejoin="round"/>
<path d="M185.235 168.269H105.726C104.687 168.269 103.845 169.08 103.845 170.08V175.573C103.845 176.573 104.687 177.384 105.726 177.384H185.235C186.274 177.384 187.116 176.573 187.116 175.573V170.08C187.116 169.08 186.274 168.269 185.235 168.269Z" fill="white" stroke="#263238" stroke-linecap="round" stroke-linejoin="round"/>
<path d="M195.883 168.805H191.54C191.009 168.805 190.499 169.008 190.123 169.37C189.747 169.732 189.536 170.222 189.536 170.734V171.806C189.536 174.028 191.405 176.848 193.714 176.848C196.023 176.848 197.887 174.028 197.887 171.806V170.734C197.887 170.222 197.675 169.732 197.3 169.37C196.924 169.008 196.414 168.805 195.883 168.805Z" fill="white" stroke="#263238" stroke-linecap="round" stroke-linejoin="round"/>
<path d="M99.4206 168.805H95.0783C94.5468 168.805 94.0371 169.008 93.6612 169.37C93.2854 169.732 93.0742 170.222 93.0742 170.734V171.806C93.0742 174.028 94.9436 176.848 97.2524 176.848C99.5612 176.848 101.431 174.028 101.431 171.806V170.734C101.429 170.222 101.217 169.731 100.84 169.37C100.463 169.008 99.9527 168.805 99.4206 168.805Z" fill="white" stroke="#263238" stroke-linecap="round" stroke-linejoin="round"/>
<path opacity="0.2" d="M90.6427 139.41C90.853 139.41 91.0628 139.429 91.2697 139.466C91.2697 139.426 91.2697 139.387 91.2697 139.347V138.276C91.2682 138.054 91.1755 137.842 91.0119 137.685C90.8483 137.529 90.6271 137.441 90.3966 137.441H86.0543C85.8248 137.443 85.605 137.531 85.4427 137.687C85.2804 137.843 85.1885 138.055 85.187 138.276V139.347C85.187 140.887 86.359 142.827 87.742 143.216C87.3142 141.508 88.2752 139.41 90.6427 139.41Z" fill="black"/>
<path opacity="0.2" d="M101.284 139.122C101.417 139.113 101.55 139.113 101.683 139.122V138.253C101.681 138.032 101.589 137.821 101.427 137.665C101.265 137.508 101.045 137.42 100.815 137.419H96.4732C96.2427 137.419 96.0215 137.506 95.8579 137.663C95.6943 137.819 95.6016 138.031 95.6001 138.253V139.325C95.6001 141.017 96.9889 143.132 98.5301 143.273C97.821 141.524 98.7528 139.122 101.284 139.122Z" fill="black"/>
<path opacity="0.2" d="M112.002 138.975H112.09V138.27C112.09 138.049 111.999 137.836 111.836 137.68C111.673 137.523 111.453 137.435 111.223 137.435H106.88C106.65 137.435 106.429 137.523 106.265 137.68C106.102 137.836 106.009 138.048 106.007 138.27V139.342C106.007 141.062 107.484 143.29 109.049 143.29C109.125 143.295 109.201 143.295 109.277 143.29C108.492 141.507 109.4 138.975 112.002 138.975Z" fill="black"/>
<path opacity="0.2" d="M121.748 138.688C121.991 138.681 122.235 138.7 122.474 138.744V138.253C122.474 138.032 122.383 137.82 122.22 137.663C122.058 137.507 121.837 137.419 121.607 137.419H117.265C117.035 137.419 116.814 137.507 116.651 137.663C116.489 137.82 116.397 138.032 116.397 138.253V139.325C116.397 140.938 117.687 142.991 119.14 143.273C118.144 141.502 119.005 138.688 121.748 138.688Z" fill="black"/>
<path opacity="0.2" d="M132.688 138.688H132.911V138.265C132.909 138.043 132.817 137.83 132.653 137.674C132.489 137.518 132.268 137.43 132.038 137.43H127.695C127.466 137.431 127.246 137.52 127.084 137.676C126.922 137.832 126.83 138.044 126.828 138.265V139.336C126.828 141.056 128.305 143.284 129.869 143.284C129.949 143.29 130.03 143.29 130.11 143.284C129.084 141.508 129.946 138.688 132.688 138.688Z" fill="black"/>
<path opacity="0.2" d="M143.183 138.744H143.318V138.253C143.316 138.032 143.225 137.821 143.062 137.665C142.9 137.508 142.68 137.42 142.451 137.419H138.108C137.878 137.419 137.657 137.506 137.493 137.663C137.33 137.819 137.237 138.031 137.235 138.253V139.325C137.235 141.045 138.712 143.273 140.277 143.273C140.372 143.281 140.468 143.281 140.564 143.273C139.603 141.496 140.476 138.744 143.183 138.744Z" fill="black"/>
<path opacity="0.2" d="M153.227 138.688C153.394 138.69 153.56 138.701 153.725 138.721V138.276C153.725 138.054 153.634 137.842 153.471 137.686C153.309 137.529 153.088 137.441 152.858 137.441H148.516C148.286 137.441 148.065 137.529 147.902 137.686C147.74 137.842 147.648 138.054 147.648 138.276V139.347C147.648 141.039 149.102 143.262 150.655 143.295C149.617 141.525 150.473 138.688 153.227 138.688Z" fill="black"/>
<path opacity="0.2" d="M164.133 138.834V138.27C164.133 138.049 164.042 137.836 163.879 137.68C163.716 137.523 163.496 137.435 163.266 137.435H158.923C158.693 137.435 158.473 137.523 158.31 137.68C158.148 137.836 158.056 138.049 158.056 138.27V139.342C158.056 141.062 159.527 143.29 161.098 143.29C161.255 143.287 161.411 143.263 161.56 143.216C160.717 141.479 161.578 138.913 164.133 138.834Z" fill="black"/>
<path opacity="0.2" d="M173.691 138.614C173.979 138.614 174.267 138.65 174.546 138.721V138.276C174.545 138.054 174.452 137.842 174.288 137.685C174.125 137.529 173.903 137.441 173.673 137.441H169.354C169.125 137.443 168.905 137.531 168.743 137.687C168.58 137.843 168.488 138.055 168.487 138.276V139.347C168.487 140.938 169.741 142.946 171.165 143.25C170.069 141.485 170.919 138.614 173.691 138.614Z" fill="black"/>
<path opacity="0.2" d="M184.332 138.614C184.541 138.615 184.748 138.634 184.953 138.671V138.276C184.952 138.055 184.86 137.843 184.698 137.687C184.535 137.531 184.316 137.443 184.086 137.441H179.744C179.513 137.441 179.292 137.529 179.128 137.685C178.965 137.842 178.872 138.054 178.871 138.276V139.347C178.871 141.039 180.277 143.188 181.801 143.295C180.699 141.525 181.543 138.614 184.332 138.614Z" fill="black"/>
<path opacity="0.2" d="M194.903 138.902C195.056 138.904 195.209 138.916 195.361 138.936V138.276C195.361 138.054 195.269 137.842 195.107 137.686C194.944 137.529 194.723 137.441 194.493 137.441H190.151C190.037 137.441 189.924 137.463 189.819 137.505C189.714 137.547 189.618 137.608 189.538 137.686C189.457 137.763 189.393 137.855 189.35 137.956C189.306 138.058 189.284 138.166 189.284 138.276V139.347C189.284 141.039 190.69 143.183 192.214 143.295C191.364 141.513 192.261 138.902 194.903 138.902Z" fill="black"/>
<path opacity="0.2" d="M205.768 138.772V138.276C205.768 138.054 205.677 137.842 205.514 137.686C205.352 137.529 205.131 137.441 204.901 137.441H200.559C200.329 137.441 200.108 137.529 199.945 137.686C199.783 137.842 199.691 138.054 199.691 138.276V139.347C199.691 141.068 201.162 143.295 202.733 143.295C202.959 143.292 203.182 143.246 203.389 143.16C202.557 141.457 203.342 138.964 205.768 138.772Z" fill="black"/>
<path opacity="0.2" d="M90.9415 159.612C91.0528 159.606 91.1643 159.606 91.2755 159.612V159.494C91.274 159.272 91.1813 159.059 91.0177 158.903C90.8542 158.747 90.633 158.659 90.4024 158.659H86.0601C85.8306 158.66 85.6109 158.749 85.4486 158.905C85.2863 159.061 85.1944 159.273 85.1929 159.494V160.565C85.1929 162.285 86.6696 164.513 88.2342 164.513C88.3424 164.51 88.4502 164.499 88.5565 164.479C87.2439 162.765 88.0408 159.612 90.9415 159.612Z" fill="black"/>
<path opacity="0.2" d="M101.138 159.612C101.32 159.612 101.503 159.628 101.683 159.657V159.51C101.681 159.289 101.589 159.078 101.427 158.922C101.265 158.766 101.045 158.677 100.815 158.676H96.4732C96.2427 158.676 96.0215 158.763 95.8579 158.92C95.6943 159.076 95.6016 159.288 95.6001 159.51V160.582C95.6001 162.302 97.0768 164.53 98.6414 164.53H98.7704C97.4284 162.793 98.2195 159.612 101.138 159.612Z" fill="black"/>
<path opacity="0.2" d="M111.481 159.753C111.677 159.753 111.873 159.77 112.067 159.804V159.505C112.067 159.395 112.044 159.287 112.001 159.185C111.957 159.084 111.893 158.992 111.813 158.915C111.732 158.837 111.636 158.776 111.531 158.734C111.426 158.692 111.313 158.67 111.199 158.67H106.857C106.626 158.67 106.405 158.758 106.242 158.914C106.078 159.071 105.985 159.283 105.984 159.505V160.576C105.984 162.268 107.437 164.485 108.99 164.524C107.824 162.77 108.638 159.753 111.481 159.753Z" fill="black"/>
<path opacity="0.2" d="M122.046 159.826C122.197 159.827 122.348 159.836 122.498 159.854V159.505C122.498 159.395 122.475 159.287 122.432 159.185C122.388 159.084 122.324 158.992 122.244 158.915C122.163 158.837 122.068 158.776 121.962 158.734C121.857 158.692 121.744 158.67 121.63 158.67H117.288C117.174 158.67 117.062 158.692 116.956 158.734C116.851 158.776 116.755 158.837 116.675 158.915C116.594 158.992 116.53 159.084 116.487 159.185C116.443 159.287 116.421 159.395 116.421 159.505V160.576C116.421 162.297 117.892 164.524 119.462 164.524H119.533C118.407 162.759 119.245 159.826 122.046 159.826Z" fill="black"/>
<path opacity="0.2" d="M132.243 159.612C132.467 159.612 132.691 159.633 132.911 159.674V159.51C132.909 159.288 132.817 159.076 132.653 158.92C132.489 158.763 132.268 158.676 132.038 158.676H127.695C127.466 158.677 127.246 158.766 127.084 158.922C126.922 159.078 126.83 159.289 126.828 159.51V160.582C126.828 162.302 128.305 164.53 129.869 164.53C128.533 162.804 129.319 159.612 132.243 159.612Z" fill="black"/>
<path opacity="0.2" d="M142.808 159.68C142.979 159.681 143.149 159.694 143.318 159.719V159.505C143.316 159.284 143.225 159.072 143.062 158.916C142.9 158.76 142.68 158.672 142.451 158.67H138.108C137.878 158.67 137.657 158.758 137.493 158.914C137.33 159.071 137.237 159.283 137.235 159.505V160.576C137.235 162.297 138.712 164.524 140.277 164.524H140.388C139.122 162.776 139.931 159.68 142.808 159.68Z" fill="black"/>
<path opacity="0.2" d="M153.602 159.894H153.725V159.499C153.725 159.278 153.634 159.065 153.471 158.909C153.309 158.752 153.088 158.664 152.858 158.664H148.516C148.286 158.664 148.065 158.752 147.902 158.909C147.74 159.065 147.648 159.278 147.648 159.499V160.571C147.648 162.291 149.119 164.519 150.684 164.519C150.798 164.517 150.912 164.504 151.024 164.479C150.016 162.72 150.854 159.894 153.602 159.894Z" fill="black"/>
<path opacity="0.2" d="M164.08 159.68H164.115V159.505C164.115 159.395 164.093 159.287 164.049 159.185C164.006 159.084 163.942 158.992 163.861 158.915C163.781 158.837 163.685 158.776 163.58 158.734C163.475 158.692 163.362 158.67 163.248 158.67H158.923C158.81 158.67 158.697 158.692 158.592 158.734C158.486 158.776 158.391 158.837 158.31 158.915C158.23 158.992 158.166 159.084 158.122 159.185C158.079 159.287 158.056 159.395 158.056 159.505V160.576C158.056 162.297 159.527 164.524 161.098 164.524C161.277 164.522 161.455 164.491 161.625 164.434C160.435 162.686 161.262 159.68 164.08 159.68Z" fill="black"/>
<path opacity="0.2" d="M174.212 159.465H174.54C174.531 159.249 174.436 159.045 174.274 158.895C174.113 158.745 173.898 158.66 173.673 158.659H169.354C169.125 158.66 168.905 158.749 168.743 158.905C168.58 159.061 168.488 159.273 168.487 159.494V160.565C168.487 162.285 169.964 164.513 171.528 164.513C171.671 164.509 171.813 164.488 171.95 164.451C170.479 162.77 171.241 159.465 174.212 159.465Z" fill="black"/>
<path opacity="0.2" d="M184.936 159.612V159.51C184.934 159.289 184.842 159.078 184.68 158.922C184.518 158.766 184.298 158.677 184.068 158.676H179.726C179.496 158.676 179.274 158.763 179.111 158.92C178.947 159.076 178.855 159.288 178.853 159.51V160.582C178.853 162.302 180.33 164.53 181.894 164.53C182.094 164.527 182.292 164.493 182.48 164.428C181.256 162.68 182.064 159.612 184.936 159.612Z" fill="black"/>
<path opacity="0.2" d="M195.138 159.612H195.373V159.499C195.373 159.39 195.35 159.281 195.307 159.18C195.263 159.078 195.199 158.986 195.119 158.909C195.038 158.831 194.943 158.77 194.837 158.728C194.732 158.686 194.619 158.664 194.505 158.664H190.163C189.933 158.664 189.713 158.752 189.55 158.909C189.387 159.065 189.296 159.278 189.296 159.499V160.571C189.296 162.291 190.767 164.519 192.331 164.519C192.47 164.517 192.608 164.498 192.742 164.462C191.435 162.736 192.238 159.612 195.138 159.612Z" fill="black"/>
<path opacity="0.2" d="M205.393 160.041C205.522 160.041 205.651 160.041 205.768 160.041V159.477C205.768 159.255 205.677 159.043 205.514 158.886C205.352 158.73 205.131 158.642 204.901 158.642H200.559C200.329 158.642 200.108 158.73 199.945 158.886C199.783 159.043 199.691 159.255 199.691 159.477V160.548C199.691 162.268 201.162 164.496 202.733 164.496C201.824 162.748 202.703 160.041 205.393 160.041Z" fill="black"/>
<path opacity="0.2" d="M85.9958 149.511H86.0719V149.234C86.0704 149.012 85.9777 148.8 85.8141 148.644C85.6506 148.487 85.4294 148.4 85.1988 148.4H80.8683C80.6382 148.4 80.4176 148.488 80.255 148.644C80.0923 148.801 80.001 149.013 80.001 149.234V150.306C80.001 152.026 81.4718 154.254 83.0423 154.254C83.1932 154.25 83.343 154.228 83.4877 154.186C82.3626 152.427 83.2123 149.511 85.9958 149.511Z" fill="black"/>
<path opacity="0.2" d="M96.1862 149.511H96.4792V149.223C96.4776 149.001 96.3849 148.789 96.2214 148.632C96.0578 148.476 95.8366 148.388 95.606 148.388H91.2638C91.0342 148.39 90.8145 148.478 90.6522 148.634C90.4899 148.791 90.398 149.002 90.3965 149.223V150.295C90.3965 152.015 91.8732 154.243 93.4378 154.243C93.5237 154.248 93.6098 154.248 93.6957 154.243C92.5412 152.477 93.3734 149.511 96.1862 149.511Z" fill="black"/>
<path opacity="0.2" d="M106.834 149.511H106.886V149.234C106.885 149.013 106.793 148.802 106.631 148.646C106.468 148.49 106.249 148.401 106.019 148.4H101.677C101.562 148.398 101.447 148.419 101.34 148.46C101.234 148.501 101.136 148.562 101.054 148.64C100.972 148.717 100.906 148.81 100.861 148.912C100.816 149.014 100.793 149.123 100.792 149.234V150.306C100.792 152.026 102.269 154.254 103.833 154.254C103.991 154.252 104.147 154.227 104.296 154.181C103.2 152.427 104.038 149.511 106.834 149.511Z" fill="black"/>
<path opacity="0.2" d="M117.024 149.46H117.294V149.246C117.294 149.024 117.202 148.812 117.04 148.655C116.877 148.499 116.656 148.411 116.426 148.411H112.084C111.854 148.411 111.633 148.499 111.471 148.655C111.308 148.812 111.217 149.024 111.217 149.246V150.317C111.217 152.037 112.688 154.265 114.252 154.265C114.359 154.263 114.464 154.252 114.569 154.231C113.356 152.477 114.176 149.46 117.024 149.46Z" fill="black"/>
<path opacity="0.2" d="M127.162 149.511C127.349 149.511 127.535 149.526 127.719 149.556V149.234C127.719 149.013 127.628 148.801 127.465 148.644C127.302 148.488 127.082 148.4 126.852 148.4H122.474C122.244 148.4 122.024 148.488 121.861 148.644C121.698 148.801 121.607 149.013 121.607 149.234V150.306C121.607 152.026 123.078 154.254 124.648 154.254C123.488 152.5 124.314 149.511 127.162 149.511Z" fill="black"/>
<path opacity="0.2" d="M137.64 149.15C137.796 149.15 137.953 149.16 138.109 149.178C138.092 148.967 137.994 148.77 137.833 148.625C137.672 148.481 137.461 148.401 137.241 148.4H132.899C132.669 148.401 132.45 148.49 132.287 148.646C132.125 148.802 132.033 149.013 132.032 149.234V150.306C132.032 152.026 133.508 154.254 135.073 154.254C135.186 154.252 135.297 154.239 135.407 154.214C133.884 152.539 134.628 149.15 137.64 149.15Z" fill="black"/>
<path opacity="0.2" d="M148.129 149.578C148.264 149.578 148.399 149.578 148.522 149.578V149.212C148.52 148.991 148.428 148.779 148.266 148.623C148.104 148.467 147.884 148.379 147.654 148.377H143.312C143.082 148.377 142.86 148.465 142.697 148.621C142.533 148.778 142.441 148.99 142.439 149.212V150.283C142.439 152.004 143.916 154.231 145.48 154.231H145.597C144.502 152.483 145.328 149.578 148.129 149.578Z" fill="black"/>
<path opacity="0.2" d="M158.929 149.234C158.929 149.013 158.837 148.801 158.675 148.644C158.512 148.488 158.292 148.4 158.062 148.4H153.719C153.605 148.4 153.493 148.421 153.387 148.463C153.282 148.505 153.187 148.567 153.106 148.644C153.026 148.722 152.962 148.814 152.918 148.915C152.874 149.016 152.852 149.125 152.852 149.234V150.306C152.852 152.026 154.323 154.254 155.888 154.254C156.2 154.247 156.506 154.165 156.778 154.017C155.595 152.336 156.309 149.46 158.929 149.234Z" fill="black"/>
<path opacity="0.2" d="M169.354 149.46V149.246C169.354 149.024 169.263 148.812 169.1 148.655C168.937 148.499 168.717 148.411 168.487 148.411H164.145C163.915 148.411 163.694 148.499 163.531 148.655C163.369 148.812 163.277 149.024 163.277 149.246V150.317C163.277 152.037 164.748 154.265 166.319 154.265C166.57 154.261 166.818 154.206 167.045 154.102C165.973 152.381 166.741 149.601 169.354 149.46Z" fill="black"/>
<path opacity="0.2" d="M179.386 149.291C179.509 149.291 179.632 149.291 179.75 149.291V149.217C179.748 148.996 179.655 148.783 179.492 148.627C179.328 148.47 179.107 148.383 178.877 148.383H174.534C174.305 148.384 174.085 148.473 173.923 148.629C173.76 148.785 173.669 148.996 173.667 149.217V150.289C173.667 152.009 175.144 154.237 176.708 154.237C176.819 154.235 176.929 154.222 177.036 154.198C175.677 152.5 176.456 149.291 179.386 149.291Z" fill="black"/>
<path opacity="0.2" d="M190.157 149.657V149.234C190.155 149.013 190.063 148.802 189.901 148.646C189.739 148.49 189.519 148.401 189.29 148.4H184.947C184.717 148.4 184.496 148.487 184.332 148.644C184.168 148.8 184.076 149.012 184.074 149.234V150.306C184.074 152.026 185.551 154.254 187.116 154.254C187.293 154.251 187.469 154.223 187.637 154.169C186.682 152.421 187.52 149.725 190.157 149.657Z" fill="black"/>
<path opacity="0.2" d="M200.072 149.364C200.237 149.366 200.401 149.378 200.565 149.398V149.234C200.565 149.013 200.473 148.801 200.311 148.644C200.148 148.488 199.927 148.4 199.697 148.4H195.355C195.241 148.4 195.128 148.421 195.023 148.463C194.918 148.505 194.822 148.567 194.742 148.644C194.661 148.722 194.597 148.814 194.554 148.915C194.51 149.016 194.488 149.125 194.488 149.234V150.306C194.488 152.026 195.959 154.254 197.523 154.254C197.578 154.257 197.633 154.257 197.687 154.254C196.375 152.511 197.172 149.364 200.072 149.364Z" fill="black"/>
<path opacity="0.2" d="M210.567 149.798C210.702 149.79 210.837 149.79 210.972 149.798V149.234C210.972 149.013 210.88 148.801 210.718 148.644C210.555 148.488 210.335 148.4 210.105 148.4H205.762C205.532 148.4 205.312 148.488 205.149 148.644C204.986 148.801 204.895 149.013 204.895 149.234V150.306C204.895 151.998 206.354 154.254 207.919 154.254C207.005 152.477 207.889 149.798 210.567 149.798Z" fill="black"/>
<path opacity="0.2" d="M185.979 175.607V170.046C185.979 169.669 185.662 169.364 185.27 169.364H105.691C105.3 169.364 104.982 169.669 104.982 170.046V175.607C104.982 175.984 105.3 176.289 105.691 176.289H185.27C185.662 176.289 185.979 175.984 185.979 175.607Z" fill="black"/>
<path opacity="0.2" d="M196.75 171.292V170.728C196.75 170.619 196.727 170.51 196.684 170.409C196.64 170.308 196.576 170.216 196.496 170.138C196.415 170.061 196.32 169.999 196.214 169.957C196.109 169.915 195.996 169.894 195.882 169.894H191.54C191.426 169.894 191.313 169.915 191.208 169.957C191.103 169.999 191.007 170.061 190.927 170.138C190.846 170.216 190.782 170.308 190.739 170.409C190.695 170.51 190.673 170.619 190.673 170.728V171.8C190.673 173.52 192.144 175.748 193.714 175.748C193.845 175.745 193.974 175.728 194.101 175.697C193.234 173.938 194.119 171.309 196.75 171.292Z" fill="black"/>
<path opacity="0.2" d="M99.7843 170.931C99.955 170.933 100.125 170.946 100.294 170.971V170.734C100.293 170.512 100.2 170.3 100.036 170.143C99.8727 169.987 99.6515 169.899 99.421 169.899H95.0787C94.8492 169.901 94.6295 169.989 94.4671 170.145C94.3048 170.302 94.213 170.513 94.2114 170.734V171.806C94.2114 173.526 95.6881 175.754 97.2528 175.754H97.3524C96.1042 174.005 96.9246 170.931 99.7843 170.931Z" fill="black"/>
<path opacity="0.2" d="M73.6601 53.298H217.3C218.287 53.298 219.234 53.6753 219.932 54.3469C220.629 55.0186 221.021 55.9295 221.021 56.8794V88.4634H69.939V56.8794C69.939 55.9295 70.331 55.0186 71.0288 54.3469C71.7267 53.6753 72.6732 53.298 73.6601 53.298Z" fill="black"/>
<path d="M205.557 59.2538H85.4273C84.4256 51.2469 82.6601 43.3458 80.1533 35.6504H210.855C208.309 43.337 206.535 51.241 205.557 59.2538Z" fill="white"/>
<path opacity="0.2" d="M206.741 51.6454C205.867 56.2363 205.569 59.2537 205.569 59.2537H85.4386C85.4386 59.2537 85.1339 56.2927 84.2373 51.6454H206.741Z" fill="black"/>
<path d="M205.557 59.2538H85.4273C84.4256 51.2469 82.6601 43.3458 80.1533 35.6504H210.855C208.308 43.337 206.535 51.241 205.557 59.2538V59.2538Z" stroke="#263238" stroke-linecap="round" stroke-linejoin="round"/>
<path d="M203.922 79.1292H86.0718V125.795H203.922V79.1292Z" fill="#263238"/>
<g opacity="0.4">
<path opacity="0.4" d="M142.058 121.666L142.679 121.694C143.461 110.057 144.242 98.4011 145.023 86.7263C144.027 98.4049 143.039 110.051 142.058 121.666Z" fill="white"/>
<path opacity="0.4" d="M140.054 121.519L140.675 121.57C142.03 110.008 143.384 98.3955 144.736 86.7319C143.177 98.403 141.616 109.999 140.054 121.519Z" fill="white"/>
<path opacity="0.4" d="M138.103 121.305C138.308 121.305 138.519 121.35 138.724 121.373C140.646 109.935 142.58 98.3861 144.525 86.7263C142.376 98.3974 140.236 109.924 138.103 121.305Z" fill="white"/>
<path opacity="0.4" d="M136.127 121.017L136.754 121.113C139.247 109.833 141.759 98.3653 144.29 86.7094C141.556 98.3766 138.835 109.813 136.127 121.017Z" fill="white"/>
<path opacity="0.4" d="M134.159 120.662L134.792 120.786C137.839 109.721 140.927 98.3654 144.056 86.7207C140.728 98.3692 137.429 109.683 134.159 120.662Z" fill="white"/>
<path opacity="0.4" d="M132.202 120.233L132.835 120.386C136.427 109.568 140.119 98.3503 143.822 86.715C139.902 98.3503 135.993 109.517 132.202 120.233Z" fill="white"/>
<path opacity="0.4" d="M130.25 119.726L130.889 119.906C134.991 109.393 139.286 98.3278 143.587 86.7037C139.069 98.3278 134.569 109.331 130.25 119.726Z" fill="white"/>
<path opacity="0.4" d="M128.334 119.151L128.973 119.348C133.608 109.196 138.472 98.3052 143.371 86.6981C138.232 98.3052 133.145 109.117 128.334 119.151Z" fill="white"/>
<path opacity="0.4" d="M126.388 118.491L127.033 118.716C132.166 108.948 137.622 98.277 143.118 86.6868C137.393 98.277 131.709 108.852 126.388 118.491Z" fill="white"/>
<path opacity="0.4" d="M124.49 117.746L125.134 118.006C130.737 108.677 136.784 98.2657 142.884 86.6755C136.538 98.2432 130.274 108.598 124.49 117.746Z" fill="white"/>
<path opacity="0.4" d="M122.609 116.912L123.253 117.211C129.301 108.384 135.94 98.2037 142.65 86.6643C135.7 98.2037 128.832 108.288 122.609 116.912Z" fill="white"/>
<path opacity="0.4" d="M120.757 115.987L121.401 116.325C127.847 108.051 135.096 98.1586 142.415 86.6473C135.74 96.7889 128.51 106.582 120.757 115.987Z" fill="white"/>
<path opacity="0.4" d="M118.958 114.971C119.169 115.101 119.392 115.22 119.608 115.344C127.741 106.227 135.287 96.6395 142.205 86.6361C135.126 96.5729 127.359 106.039 118.958 114.971Z" fill="white"/>
<path opacity="0.4" d="M117.159 113.849L117.797 114.272C126.573 105.671 134.647 96.4318 141.946 86.6361C134.495 96.3631 126.203 105.466 117.159 113.849Z" fill="white"/>
<path opacity="0.4" d="M141.712 86.6022C132.284 97.9668 123.06 106.635 115.442 112.625L116.069 113.093C125.474 105.069 134.061 96.1985 141.712 86.6022Z" fill="white"/>
<path opacity="0.4" d="M141.478 86.5853C131.434 97.8653 121.619 106.111 113.772 111.3L114.393 111.813C122.134 106.297 131.698 97.8935 141.478 86.5853Z" fill="white"/>
<path opacity="0.4" d="M141.226 86.5684C130.578 97.7638 120.206 105.524 112.184 109.856C112.377 110.048 112.57 110.239 112.77 110.42C120.716 105.739 130.859 97.792 141.226 86.5684Z" fill="white"/>
<path opacity="0.4" d="M141.009 86.5458C129.781 97.6284 118.87 104.876 110.719 108.316L111.305 108.931C119.374 105.113 130.039 97.6622 141.009 86.5458Z" fill="white"/>
<path opacity="0.4" d="M109.371 106.669C109.541 106.895 109.717 107.121 109.893 107.341C118.067 104.436 129.231 97.5044 140.781 86.5289C128.996 97.4536 117.593 104.16 109.371 106.669Z" fill="white"/>
<path opacity="0.4" d="M108.175 104.955C108.328 105.192 108.486 105.428 108.644 105.665C116.848 103.68 128.498 97.3013 140.546 86.4894C128.263 97.2392 116.409 103.381 108.175 104.955Z" fill="white"/>
<path opacity="0.4" d="M107.156 103.212C107.285 103.46 107.419 103.703 107.554 103.951C115.758 102.879 127.806 97.0646 140.312 86.4952C127.601 96.9631 115.36 102.535 107.156 103.212Z" fill="white"/>
<path opacity="0.4" d="M106.324 101.43C106.429 101.678 106.541 101.932 106.652 102.18C114.809 101.988 127.162 96.7486 140.054 86.4556C127.015 96.6414 114.469 101.627 106.324 101.43Z" fill="white"/>
<path opacity="0.4" d="M144.044 121.745H144.66C144.847 110.089 145.043 98.418 145.246 86.7319C144.836 98.4105 144.435 110.082 144.044 121.745Z" fill="white"/>
<path opacity="0.4" d="M146.025 121.756H146.647C146.256 110.1 145.865 98.4292 145.475 86.7432L146.025 121.756Z" fill="white"/>
<path opacity="0.4" d="M148.006 121.706H148.627C147.651 110.087 146.674 98.4311 145.697 86.7375C146.467 98.4161 147.236 110.072 148.006 121.706Z" fill="white"/>
<path opacity="0.4" d="M150.016 121.587L150.637 121.542C149.075 110.01 147.512 98.4067 145.949 86.7319C147.293 98.4067 148.649 110.025 150.016 121.587Z" fill="white"/>
<path opacity="0.4" d="M151.967 121.407L152.589 121.333C150.463 109.937 148.315 98.4011 146.143 86.7263C148.1 98.4011 150.041 109.961 151.967 121.407Z" fill="white"/>
<path opacity="0.4" d="M153.942 121.153L154.569 121.063C151.874 109.839 149.149 98.3936 146.395 86.7263C148.926 98.3974 151.442 109.873 153.942 121.153Z" fill="white"/>
<path opacity="0.4" d="M155.911 120.831L156.538 120.719C153.284 109.717 149.981 98.3842 146.629 86.7207C149.746 98.3842 152.841 109.754 155.911 120.831Z" fill="white"/>
<path opacity="0.4" d="M157.868 120.437L158.507 120.296C154.71 109.58 150.795 98.3728 146.863 86.715C150.579 98.3747 154.247 109.615 157.868 120.437Z" fill="white"/>
<path opacity="0.4" d="M159.826 119.974L160.458 119.799C156.134 109.382 151.627 98.3673 147.098 86.7037C151.405 98.356 155.694 109.416 159.826 119.974Z" fill="white"/>
<path opacity="0.4" d="M161.765 119.427L162.41 119.224C157.564 109.174 152.448 98.356 147.332 86.6981C152.243 98.3334 157.118 109.236 161.765 119.427Z" fill="white"/>
<path opacity="0.4" d="M163.693 118.801L164.338 118.57C159.005 108.931 153.309 98.3108 147.566 86.6868C153.081 98.3108 158.548 109.004 163.693 118.801Z" fill="white"/>
<path opacity="0.4" d="M165.603 118.096C165.82 118.006 166.043 117.927 166.254 117.837C160.453 108.666 154.159 98.2827 147.801 86.6755C153.924 98.2827 159.978 108.745 165.603 118.096Z" fill="white"/>
<path opacity="0.4" d="M167.496 117.312L168.147 117.013C161.906 108.367 155.009 98.2545 148.035 86.6699C154.768 98.2432 161.425 108.457 167.496 117.312Z" fill="white"/>
<path opacity="0.4" d="M169.354 116.427C169.571 116.319 169.787 116.201 169.998 116.088C162.216 106.651 154.959 96.8237 148.258 86.6473C155.618 98.2093 162.908 108.13 169.354 116.427Z" fill="white"/>
<path opacity="0.4" d="M171.194 115.451L171.85 115.079C163.412 106.114 155.613 96.6115 148.504 86.6361C155.447 96.679 163.025 106.302 171.194 115.451Z" fill="white"/>
<path opacity="0.4" d="M148.738 86.6191C156.067 96.4607 164.176 105.742 172.993 114.379L173.643 113.956C164.554 105.538 156.222 96.3927 148.738 86.6191Z" fill="white"/>
<path opacity="0.4" d="M148.973 86.6022C156.66 96.2446 165.294 105.152 174.757 113.2C174.973 113.048 175.179 112.89 175.39 112.732C167.748 106.743 158.454 98.0345 148.973 86.6022Z" fill="white"/>
<path opacity="0.4" d="M149.207 86.5853C159.052 97.9612 168.674 106.399 176.438 111.915C176.649 111.745 176.866 111.576 177.071 111.401C169.195 106.224 159.316 97.9556 149.207 86.5853Z" fill="white"/>
<path opacity="0.4" d="M149.43 86.5684C159.89 97.8484 170.086 105.852 178.056 110.527C178.261 110.341 178.454 110.144 178.642 109.963C170.614 105.637 160.165 97.8484 149.43 86.5684Z" fill="white"/>
<path opacity="0.4" d="M149.676 86.5458C160.734 97.7468 171.481 105.231 179.562 109.021L180.148 108.401C171.997 105 160.997 97.7243 149.676 86.5458Z" fill="white"/>
<path opacity="0.4" d="M181.01 107.419C181.191 107.194 181.361 106.968 181.537 106.737C173.304 104.284 161.795 97.5551 149.893 86.5289C161.543 97.6002 172.817 104.554 181.01 107.419Z" fill="white"/>
<path opacity="0.4" d="M182.281 105.722L182.762 105C174.517 103.505 162.551 97.3465 150.139 86.5065C162.322 97.4086 174.042 103.804 182.281 105.722Z" fill="white"/>
<path opacity="0.4" d="M183.418 103.968C183.559 103.72 183.693 103.471 183.828 103.218C175.624 102.654 163.254 97.0757 150.426 86.4838C163.014 97.1659 175.214 102.992 183.418 103.968Z" fill="white"/>
<path opacity="0.4" d="M150.602 86.4556C163.635 96.867 176.152 102.107 184.297 102.186C184.414 101.932 184.526 101.678 184.637 101.424C176.503 101.746 163.822 96.7542 150.602 86.4556Z" fill="white"/>
</g>
<path opacity="0.2" d="M128.334 87.5722C126.113 93.0543 128.516 109.004 144.543 109.004C160.57 109.004 166.389 97.7975 165.738 90.8716L187.133 87.5553C187.133 87.5553 193.691 104.994 179.767 117.193C165.844 129.393 117.581 128.603 107.379 119.331C97.1764 110.059 102.837 91.7402 102.837 91.7402L128.334 87.5722Z" fill="black"/>
<path d="M222.235 63.9181V60.0716C222.234 59.9293 222.282 59.7906 222.369 59.6759C222.457 59.5611 222.58 59.4765 222.721 59.4343L225.651 58.5544V54.7079C225.651 54.2472 225.841 53.8054 226.18 53.4796C226.518 53.1538 226.977 52.9708 227.456 52.9708H230.972C231.145 52.9677 231.313 53.0294 231.44 53.1431C231.567 53.2567 231.643 53.4134 231.652 53.5799V54.8207C231.652 54.9903 231.582 55.153 231.458 55.2734C231.334 55.3938 231.166 55.4622 230.99 55.4637H226.519V59.2256C226.516 59.339 226.485 59.4501 226.426 59.5486C226.368 59.6472 226.285 59.73 226.185 59.7896L223.688 61.2447V63.9237L222.235 63.9181Z" fill="#999999" stroke="#263238" stroke-linecap="round" stroke-linejoin="round"/>
<path d="M226.091 63.9181H222.235V75.0176H226.091V63.9181Z" fill="#263238"/>
<path d="M230.914 62.9762H226.091V75.9595H230.914V62.9762Z" fill="#757575"/>
<path opacity="0.2" d="M230.902 70.8834H226.091V75.9594H230.902V70.8834Z" fill="black"/>
<path d="M230.914 62.9762H226.091V75.9595H230.914V62.9762Z" stroke="#263238" stroke-linecap="round" stroke-linejoin="round"/>
<path d="M64.8702 75.012H68.7261V63.9124H64.8702V75.012Z" fill="#263238"/>
<path d="M60.0473 75.9539H64.8701V62.9706H60.0473V75.9539Z" fill="#757575"/>
<path opacity="0.2" d="M64.876 70.8834H60.0532V75.8353H64.876V70.8834Z" fill="black"/>
<path d="M60.0473 75.9539H64.8701V62.9706H60.0473V75.9539Z" stroke="#263238" stroke-linecap="round" stroke-linejoin="round"/>
<path d="M68.146 70.1277C68.4942 69.2484 68.5481 68.2864 68.3001 67.3763C68.0521 66.4661 67.5147 65.6533 66.763 65.0517L63.9268 62.7957C63.7463 62.6493 63.5365 62.5403 63.3103 62.4755C63.0841 62.4106 62.8465 62.3914 62.6122 62.4189C62.378 62.4464 62.1521 62.5201 61.9488 62.6354C61.7455 62.7507 61.569 62.9051 61.4304 63.089L50.1851 78.018C49.9711 78.2974 49.8561 78.6355 49.8569 78.9825V95.017C49.8569 95.2322 49.9013 95.4453 49.9876 95.6439C50.0739 95.8424 50.2003 96.0225 50.3595 96.1736C50.5187 96.3247 50.7075 96.4439 50.915 96.5242C51.1225 96.6045 51.3445 96.6443 51.5681 96.6413C52.0157 96.6413 52.4449 96.4702 52.7614 96.1656C53.0779 95.861 53.2557 95.4478 53.2557 95.017V81.9942C53.2568 81.6728 53.3612 81.3595 53.5546 81.0975L61.9637 69.8175C62.0373 69.7184 62.1315 69.6352 62.2403 69.573C62.3491 69.5108 62.4701 69.471 62.5957 69.4562C62.7213 69.4413 62.8487 69.4518 62.9699 69.4868C63.0911 69.5218 63.2034 69.5806 63.2998 69.6596L64.8468 70.9229C65.2298 71.2358 65.7157 71.4076 66.2181 71.408C66.6358 71.4056 67.0432 71.2821 67.387 71.0538C67.7309 70.8254 67.9954 70.5027 68.146 70.1277Z" fill="white" stroke="#263238" stroke-linecap="round" stroke-linejoin="round"/>
<path d="M65.8253 68.6669C66.2687 68.6669 66.6281 68.321 66.6281 67.8943C66.6281 67.4675 66.2687 67.1216 65.8253 67.1216C65.3819 67.1216 65.0225 67.4675 65.0225 67.8943C65.0225 68.321 65.3819 68.6669 65.8253 68.6669Z" fill="#999999" stroke="#263238" stroke-linecap="round" stroke-linejoin="round"/>
<path d="M218.66 58.5544H72.3066V80.37H218.66V58.5544Z" fill="#263238"/>
<path opacity="0.2" d="M216.545 60.1957H74.3634C73.9167 60.1957 73.5547 60.5441 73.5547 60.974V64.5046C73.5547 64.9345 73.9167 65.283 74.3634 65.283H216.545C216.991 65.283 217.353 64.9345 217.353 64.5046V60.974C217.353 60.5441 216.991 60.1957 216.545 60.1957Z" fill="white"/>
<path d="M205.557 84.7578H85.4273C82.042 77.3102 80.2484 69.2831 80.1533 61.1544H210.855C210.855 72.0847 205.557 84.7578 205.557 84.7578Z" fill="white"/>
<g opacity="0.7">
<path opacity="0.7" d="M95.1431 82.987C95.1431 82.987 97.7742 82.8516 99.2451 82C100.716 81.1483 100.61 82.767 101.454 82.8742C102.298 82.9813 104.291 82.3102 105.345 82.3102C106.4 82.3102 105.597 82.9306 106.787 82.8742C107.976 82.8178 107.338 82.9306 107.959 82.8178L113.051 82C113.051 82 115.635 81.5206 116.157 81.7631C116.679 82.0056 117.364 83.2013 118.126 82.8911C118.888 82.5809 118.483 82.3271 119.632 82.3271C120.342 82.3303 121.048 82.429 121.73 82.6204C121.73 82.6204 121.835 82.3327 122.363 82.3271H123.306C123.306 82.3271 125.304 82.8347 125.621 82.8347C125.937 82.8347 128.299 82.3327 128.381 82.3271C128.463 82.3214 130.725 81.7631 130.725 81.7631C131.205 82.2459 131.813 82.593 132.483 82.767C133.339 82.8742 134.241 82.6542 134.886 82.9306C135.53 83.2069 137.652 82.8178 137.652 82.8178C138.158 82.8209 138.663 82.8586 139.163 82.9306C139.82 83.0748 140.504 83.0554 141.15 82.8742C142.338 82.5718 143.585 82.5524 144.783 82.8178C146.688 83.1505 148.44 82.3158 149.248 82.3102C150.057 82.3045 153.292 82.6542 154.405 82.6542C155.519 82.6542 158.466 83.0377 160.517 82.8178C162.568 82.5978 163.91 83.0941 165.287 83.0941C166.664 83.0941 168.135 83.0377 168.452 83.0377C168.768 83.0377 170.292 82.0789 172.472 82.3102C174.652 82.5414 172.712 82.0225 174.054 82.3102C175.396 82.5978 176.456 82.8742 177.025 82.9306C177.481 82.9561 177.938 82.9372 178.39 82.8742L180.734 82.7106H192.419" stroke="#263238" stroke-linecap="round" stroke-linejoin="round"/>
<path opacity="0.7" d="M92.7109 78.6328C92.7109 78.6328 99.948 78.6328 101.255 78.52C102.562 78.4072 103.259 77.7643 103.956 77.7643C104.654 77.7643 108.175 78.4072 108.175 78.4072C108.278 78.1969 108.446 78.0223 108.656 77.9072C108.866 77.7921 109.107 77.7422 109.347 77.7643C110.303 77.7643 109.816 77.8489 110.695 78.1873C111.574 78.5257 111.117 78.1873 111.58 78.52C112.27 78.8183 113 79.0233 113.748 79.1291C113.748 79.1291 117.012 79.2758 117.135 78.52C117.258 77.7643 118.893 79.1291 118.893 79.1291C118.893 79.1291 123.324 78.52 125.035 78.52C126.746 78.52 131.035 78.1873 131.035 78.1873C131.035 78.1873 134.551 78.6328 134.715 78.6328C134.879 78.6328 135.46 79.5183 136.087 79.1291C136.714 78.74 137.317 78.2944 138.061 78.4072C138.753 78.5722 139.421 78.8145 140.054 79.1291L141.689 78.2944L143.564 78.4072C143.564 78.4072 145.474 79.6311 146.84 79.1291C147.879 78.7293 148.895 78.2736 149.881 77.7643L151.563 79.1291H152.665L155.929 78.52C156.18 78.8172 156.518 79.0344 156.9 79.1431C157.282 79.2517 157.689 79.2469 158.068 79.1291C159.45 78.7456 172.665 79.1291 176.028 79.1291C179.392 79.1291 180.13 78.2944 180.13 78.2944L182.721 79.1291H195.613" stroke="#263238" stroke-linecap="round" stroke-linejoin="round"/>
</g>
<path opacity="0.2" d="M206.782 81.4979C206.073 83.5283 205.557 84.7578 205.557 84.7578H85.4274C85.4274 84.7578 84.8414 83.5734 84.0386 81.4979H206.782Z" fill="black"/>
<path opacity="0.2" d="M209.284 72.959C208.88 74.651 208.434 76.3035 207.995 77.7643H82.7316C82.2979 76.3317 81.8526 74.713 81.4658 72.959H209.284Z" fill="black"/>
<path d="M205.557 84.7578H85.4273C82.042 77.3102 80.2484 69.2831 80.1533 61.1544H210.855C210.855 72.0847 205.557 84.7578 205.557 84.7578Z" stroke="#263238" stroke-linecap="round" stroke-linejoin="round"/>
<path d="M72.2772 57.4321H68.6968V81.5037H72.2772V57.4321Z" fill="#757575"/>
<path opacity="0.2" d="M72.2069 74.3634H68.7202V81.5036H72.2069V74.3634Z" fill="black"/>
<path d="M72.2772 57.4321H68.6968V81.5037H72.2772V57.4321Z" stroke="#263238" stroke-linecap="round" stroke-linejoin="round"/>
<path d="M222.264 57.4321H218.684V81.5037H222.264V57.4321Z" fill="#757575"/>
<path opacity="0.2" d="M222.264 74.3634H218.654V81.5036H222.264V74.3634Z" fill="black"/>
<path d="M222.264 57.4321H218.684V81.5037H222.264V57.4321Z" stroke="#263238" stroke-linecap="round" stroke-linejoin="round"/>
<path d="M218.713 56.4225V73.9798H72.2482V56.4225H70.8418V75.1586H220.119V56.4225H218.713Z" fill="#999999" stroke="#263238" stroke-linecap="round" stroke-linejoin="round"/>
<path d="M227.368 85.9986V125.371C227.368 126.036 227.094 126.673 226.606 127.142C226.118 127.612 225.456 127.876 224.766 127.876H66.177C65.487 127.876 64.8252 127.612 64.3373 127.142C63.8493 126.673 63.5752 126.036 63.5752 125.371V85.9986C63.5752 85.3345 63.8493 84.6976 64.3373 84.2279C64.8252 83.7583 65.487 83.4945 66.177 83.4945H139.251V85.9986C139.251 85.9986 126.775 96.4157 105.263 100.257C108.346 113.685 125.187 123.945 145.51 123.945C165.832 123.945 182.674 113.674 185.762 100.257C164.221 96.4157 151.745 85.9986 151.745 85.9986V83.4719H224.784C225.126 83.4741 225.464 83.5413 225.78 83.6695C226.095 83.7978 226.381 83.9846 226.621 84.2193C226.861 84.454 227.05 84.732 227.178 85.0373C227.307 85.3426 227.371 85.6693 227.368 85.9986Z" fill="white" stroke="#263238" stroke-linecap="round" stroke-linejoin="round"/>
<path d="M227.368 85.9986V125.371C227.368 125.701 227.301 126.027 227.169 126.331C227.038 126.635 226.846 126.912 226.604 127.144C226.362 127.377 226.074 127.561 225.758 127.687C225.441 127.812 225.103 127.876 224.76 127.876H66.177C65.8349 127.876 65.4959 127.812 65.1796 127.687C64.8632 127.561 64.5757 127.377 64.3335 127.144C64.0912 126.912 63.8991 126.635 63.7679 126.331C63.6368 126.027 63.5693 125.701 63.5693 125.371V85.9986C63.5709 85.3335 63.8461 84.6959 64.3348 84.2256C64.8235 83.7552 65.4859 83.4903 66.177 83.4888H139.251V85.9986C139.251 85.9986 126.769 96.4101 105.263 100.257C108.346 113.685 125.187 123.945 145.516 123.945C165.844 123.945 182.674 113.674 185.762 100.257C164.221 96.4101 151.745 85.9986 151.745 85.9986V83.4719H224.784C225.474 83.4779 226.134 83.7473 226.619 84.221C227.103 84.6946 227.373 85.334 227.368 85.9986Z" fill="white"/>
<path opacity="0.2" d="M223.852 86.6021V122.952C223.852 123.194 223.802 123.433 223.706 123.656C223.609 123.879 223.468 124.082 223.29 124.252C223.112 124.422 222.9 124.557 222.668 124.649C222.436 124.74 222.187 124.786 221.936 124.785H67.7356C67.4852 124.786 67.2372 124.739 67.0058 124.647C66.7744 124.555 66.5642 124.42 66.3872 124.25C66.2102 124.079 66.0699 123.877 65.9745 123.654C65.879 123.431 65.8303 123.193 65.8311 122.952V86.6021C65.8303 86.3606 65.8789 86.1214 65.9742 85.898C66.0695 85.6747 66.2096 85.4716 66.3865 85.3003C66.5633 85.1291 66.7735 84.993 67.0049 84.8999C67.2364 84.8068 67.4847 84.7586 67.7356 84.7578H139.228V85.9986C139.228 85.9986 126.746 96.41 105.24 100.257C108.322 113.685 125.164 123.945 145.492 123.945C165.82 123.945 182.65 113.674 185.738 100.257C164.197 96.41 151.721 85.9986 151.721 85.9986V84.7578H221.953C222.458 84.7623 222.941 84.9586 223.297 85.3039C223.652 85.6493 223.852 86.1159 223.852 86.6021Z" fill="white"/>
<path d="M227.368 85.9986V125.371C227.368 125.701 227.301 126.027 227.169 126.331C227.038 126.635 226.846 126.912 226.604 127.144C226.362 127.377 226.074 127.561 225.758 127.687C225.441 127.812 225.103 127.876 224.76 127.876H66.177C65.8349 127.876 65.4959 127.812 65.1796 127.687C64.8632 127.561 64.5757 127.377 64.3335 127.144C64.0912 126.912 63.8991 126.635 63.7679 126.331C63.6368 126.027 63.5693 125.701 63.5693 125.371V85.9986C63.5709 85.3335 63.8461 84.6959 64.3348 84.2256C64.8235 83.7552 65.4859 83.4903 66.177 83.4888H139.251V85.9986C139.251 85.9986 126.769 96.4101 105.263 100.257C108.346 113.685 125.187 123.945 145.516 123.945C165.844 123.945 182.674 113.674 185.762 100.257C164.221 96.4101 151.745 85.9986 151.745 85.9986V83.4719H224.784C225.474 83.4779 226.134 83.7473 226.619 84.221C227.103 84.6946 227.373 85.334 227.368 85.9986V85.9986Z" stroke="#263238" stroke-linecap="round" stroke-linejoin="round"/>
<path opacity="0.2" d="M174.98 139.545L182.768 160.452C182.768 160.452 186.137 137.441 188.147 137.441C190.157 137.441 194.488 150.024 194.488 150.024C194.488 150.024 197.16 143.459 199.691 143.222C202.223 142.985 204.514 159.341 204.514 159.341L204.907 195.646L201.713 250.551C201.713 250.551 181.338 228.95 175.396 223.383C169.454 217.817 163.775 205.567 162.134 203.079C160.494 200.592 160.078 187.569 160.078 187.569C162.155 185.011 163.241 181.836 163.148 178.591C163.148 178.591 167.93 170.886 167.637 165.201C167.344 159.516 166.606 137.424 174.98 139.545Z" fill="black" fill-opacity="0.7"/>
<path d="M236.281 240.828L205.434 256.445C205.434 256.287 201.379 249.965 196.48 242.813C194.265 239.576 191.874 236.175 189.606 233.096C185.891 228.059 181.168 223.711 180.764 222.763C179.592 219.943 170.555 209.385 168.534 205.279C166.512 201.173 166.049 188.399 165.158 185.393C164.268 182.387 166.823 179.516 168.874 178.117C170.925 176.718 173.075 173.041 173.075 173.041C173.075 173.041 170.807 164.536 170.784 160.21C170.761 155.884 169.231 140.786 171.059 139.376C172.888 137.966 174.523 138.558 174.98 139.528C176.48 142.726 177.828 150.769 178.982 154.474C180.137 158.18 182.305 168.929 183.371 169.702C184.438 170.475 186.336 167.576 186.336 167.576C186.336 167.576 186.518 158.552 186.922 154.813L186.336 142.969C186.336 142.969 185.241 135.851 187.79 135.174C191.306 134.243 192.589 136.37 192.988 137.267C193.386 138.163 195.027 143.33 195.027 143.33L195.121 143.685C195.121 143.719 195.121 143.753 195.121 143.792V143.854C195.148 143.952 195.177 144.059 195.208 144.176C195.273 144.412 195.349 144.694 195.431 145.016C196.211 147.954 197.711 153.837 197.646 155.286C197.558 157.243 196.849 168.083 197.851 170.334L199.41 155.36C199.41 155.36 196.896 143.82 197.629 142.156C198.361 140.493 201.813 142.331 202.223 142.985C202.633 143.64 205.985 147.599 206.583 149.111L207.169 150.622C207.169 150.622 207.995 147.046 209.935 147.977C211.874 148.907 212.115 153.453 212.249 155.439C212.384 157.424 213.791 170.193 214.007 170.215C214.224 170.238 216.463 176.871 216.158 181.253C215.519 190.632 217.207 197.609 217.266 201.207C217.324 204.806 214.505 213.141 214.505 213.141C214.605 213.305 216.445 216.317 216.949 218.962C217.318 220.902 223.887 227.913 229.255 233.491C232.988 237.337 236.117 240.484 236.281 240.828Z" fill="white"/>
<path opacity="0.4" d="M196.486 242.825C194.271 239.587 191.88 236.186 189.612 233.107C185.897 228.07 181.174 223.722 180.769 222.774C179.597 219.954 170.561 209.396 168.54 205.29C166.518 201.184 166.055 188.41 165.164 185.404C164.274 182.398 166.829 179.527 168.88 178.128C170.931 176.729 173.081 173.052 173.081 173.052C173.081 173.052 170.813 164.547 170.79 160.221C170.766 155.895 169.237 140.797 171.065 139.387C172.894 137.977 174.529 138.569 174.986 139.539C176.486 142.737 177.834 150.78 178.988 154.485C180.142 158.191 182.311 168.941 183.377 169.713C184.444 170.486 186.342 167.587 186.342 167.587C186.342 167.587 186.524 158.563 186.928 154.824L186.342 142.98C186.342 142.98 185.246 135.862 187.796 135.185C191.312 134.255 192.595 136.381 192.993 137.278C193.392 138.174 195.033 143.341 195.033 143.341L195.126 143.696C195.126 143.73 195.126 143.764 195.126 143.803V143.865C195.15 143.963 195.179 144.07 195.214 144.187C195.279 144.423 195.355 144.706 195.437 145.027C194.529 143.645 193.281 142.466 191.61 142.156C186.922 141.276 187.936 146.296 188.382 149.308C188.634 151.306 188.585 153.329 188.235 155.314L189.407 154.666C188.563 156.115 187.356 168.162 187.356 170.841C187.356 173.52 185.153 174.411 183.178 173.627C181.203 172.843 180.5 160.548 179 158.343C177.5 156.138 173.327 160.351 173.14 164.203C172.952 168.055 176.685 179.544 175.8 182.251C174.915 184.958 174.927 195.223 174.927 195.223L173.849 192.578C173.919 192.939 173.849 194.151 171.593 197.721C170.745 199.014 170.197 200.466 169.986 201.981C169.775 203.495 169.905 205.036 170.368 206.497C171.745 209.424 178.73 217.14 179.902 217.935C179.902 217.935 180.752 214.585 183.418 215.476C182.51 216.865 181.849 218.39 181.461 219.988C180.91 222.447 186.471 224.021 188.212 226.361C189.278 227.788 189.993 232.137 196.486 242.825Z" fill="white"/>
<path opacity="0.4" d="M229.29 233.496C223.805 228.178 214.154 223.113 214.74 221.787C215.525 220.005 214.529 216.209 212.841 213.13C211.153 210.051 213.427 205.054 213.427 205.054L214.47 207.958C215.305 204.608 215.402 201.127 214.757 197.738C213.691 191.98 212.859 194.005 212.859 194.005C212.859 194.005 213.075 188.816 214.031 185.985C214.986 183.153 215.789 176.278 214.47 172.212C213.152 168.145 210.368 168.912 209.624 170.311C208.88 171.71 209.677 177.164 210.292 178.952C210.907 180.739 208.288 183.746 208.235 181.512C208.182 179.279 207.192 173.052 207.192 173.052L209.178 160.548L207.192 150.616C207.192 150.616 208.018 147.04 209.958 147.971C211.897 148.902 212.138 153.448 212.273 155.433C212.407 157.418 213.814 170.187 214.031 170.21C214.247 170.232 216.486 176.865 216.181 181.247C215.542 190.626 217.23 197.603 217.289 201.201C217.347 204.8 214.529 213.136 214.529 213.136C214.628 213.299 216.468 216.311 216.972 218.956C217.341 220.896 223.91 227.907 229.278 233.485L229.29 233.496Z" fill="white"/>
<path opacity="0.4" d="M206.582 149.11C206.694 149.392 206.787 149.624 206.858 149.81C204.994 145.642 201.818 146.933 201.256 148.118C200.693 149.302 202.586 156.651 203.014 157.79C203.441 158.93 201.314 168.027 201.004 171.039C200.693 174.05 199.867 174.665 199.867 174.665C197.763 174.817 197.523 169.228 197.523 168.461C197.564 169.103 197.694 169.736 197.91 170.345L199.468 155.371C199.468 155.371 196.896 143.82 197.628 142.156C198.361 140.492 201.812 142.331 202.223 142.985C202.633 143.639 205.985 147.599 206.582 149.11Z" fill="white"/>
<path d="M236.281 240.828C235.883 239.959 217.582 222.216 216.943 218.956C216.428 216.238 214.494 213.13 214.494 213.13C214.494 213.13 217.312 204.811 217.254 201.196C217.195 197.581 215.496 190.621 216.146 181.241C216.451 176.859 214.218 170.227 213.996 170.204C213.773 170.181 212.367 157.412 212.238 155.427C212.109 153.442 211.868 148.896 209.923 147.965C207.977 147.035 207.157 150.611 207.157 150.611L206.571 149.099C205.985 147.588 202.621 143.628 202.211 142.974C201.801 142.32 198.355 140.476 197.617 142.145C196.879 143.814 199.451 155.337 199.451 155.337L197.904 170.328C196.902 168.072 197.611 157.238 197.699 155.281C197.787 153.323 195.033 143.324 195.033 143.324C195.033 143.324 193.38 138.18 192.993 137.255C192.607 136.33 191.312 134.232 187.796 135.163C185.246 135.839 186.342 142.957 186.342 142.957L186.928 154.801C186.536 158.557 186.342 167.564 186.342 167.564C186.342 167.564 184.444 170.458 183.377 169.691C182.311 168.924 180.142 158.179 178.988 154.463C177.834 150.746 176.486 142.715 174.986 139.517C174.529 138.547 172.894 137.954 171.065 139.364C169.237 140.774 170.761 155.867 170.79 160.199C170.819 164.53 173.081 173.03 173.081 173.03C173.081 173.03 170.931 176.684 168.88 178.106C166.829 179.527 164.274 182.369 165.164 185.381C166.055 188.393 166.518 201.173 168.54 205.268C170.561 209.362 179.574 219.932 180.769 222.752C181.174 223.699 185.897 228.048 189.612 233.084C196.908 242.971 205.434 256.208 205.434 256.434" stroke="#263238" stroke-linecap="round" stroke-linejoin="round"/>
<path d="M173.075 173.058C173.075 173.058 174.529 179.989 174.476 181.151C174.476 181.151 173.204 186.503 173.192 189.972C172.303 191.279 171.504 192.641 170.802 194.05C170.309 195.302 169.43 198.381 169.794 200.096" stroke="#263238" stroke-linecap="round" stroke-linejoin="round"/>
<path d="M170.42 183.3C170.42 183.3 173.983 183.328 173.755 184.772" stroke="#263238" stroke-linecap="round" stroke-linejoin="round"/>
<path d="M173.192 189.972C173.192 189.972 170.907 189.019 170.104 190.299" stroke="#263238" stroke-linecap="round" stroke-linejoin="round"/>
<path d="M186.348 167.587C186.348 167.587 186.184 172.9 184.73 172.477" stroke="#263238" stroke-linecap="round" stroke-linejoin="round"/>
<path d="M197.904 170.328C197.904 170.328 197.482 173.233 198.619 174.129" stroke="#263238" stroke-linecap="round" stroke-linejoin="round"/>
<path d="M207.174 150.622C207.174 150.622 208.757 157.954 209.12 159.691C209.483 161.428 207.321 170.294 207.362 172.601C207.403 174.908 208.428 178.207 208.288 179.758" stroke="#263238" stroke-linecap="round" stroke-linejoin="round"/>
<path d="M213.492 206.306C213.492 206.306 212.982 211.094 214.511 213.141" stroke="#263238" stroke-linecap="round" stroke-linejoin="round"/>
<path d="M182.768 215.781C182.768 215.781 179.357 218.77 180.605 222.447" stroke="#263238" stroke-linecap="round" stroke-linejoin="round"/>
<path d="M205.182 178.512C205.235 180.621 203.952 183.08 203.817 185.996" stroke="#263238" stroke-linecap="round" stroke-linejoin="round"/>
<path d="M194.318 176.628C195.044 178.354 193.462 182.11 193.222 183.52C193.126 184.623 193.251 185.734 193.591 186.791" stroke="#263238" stroke-linecap="round" stroke-linejoin="round"/>
<path d="M214.739 182.573C214.446 184.406 213.099 185.714 212.841 191.354" stroke="#263238" stroke-linecap="round" stroke-linejoin="round"/>
<path d="M181.467 176.092C182.451 177.124 181.789 182.054 182.053 182.86" stroke="#263238" stroke-linecap="round" stroke-linejoin="round"/>
<path d="M199.826 147.695C199.826 147.695 203.178 145.332 206.061 148.118" stroke="#263238" stroke-linecap="round" stroke-linejoin="round"/>
<path d="M188.282 142.263C188.282 142.263 188.868 141.322 191.698 141.553C194.528 141.784 195.032 143.318 195.032 143.318" stroke="#263238" stroke-linecap="round" stroke-linejoin="round"/>
<path d="M180.013 158.366C180.013 158.366 179.064 157.018 176.562 157.463C174.06 157.909 172.946 161.315 172.946 161.315" fill="white"/>
<path d="M180.013 158.366C180.013 158.366 179.064 157.018 176.562 157.463C174.06 157.909 172.946 161.315 172.946 161.315" stroke="#263238" stroke-linecap="round" stroke-linejoin="round"/>
<path d="M214.013 170.215C214.013 170.215 211.927 167.305 209.419 168.551" stroke="#263238" stroke-linecap="round" stroke-linejoin="round"/>
<path opacity="0.2" d="M125.141 148.896C128.657 151.519 125.691 167.615 125.691 167.615L126.002 172.855L132.032 170.328L134.78 181.523C134.78 181.523 134.71 185.624 136.943 187.163C136.943 187.163 137.493 196.362 136.943 203.085C136.392 209.808 125.223 217.71 121.373 224.765C117.523 231.821 92.4124 252.559 92.4124 252.559L71.1523 242.825L86.5231 183.074L100.294 166.036L108.457 146.437C108.457 146.437 109.858 159.24 109.043 167.869L125.141 148.896Z" fill="black" fill-opacity="0.7"/>
<path d="M131.059 184.654C130.526 187.124 131.809 200.665 131.586 202.493C131.364 204.32 120.171 216.593 119.608 217.523C119.046 218.454 111.563 222.599 109.822 224.579C101.689 233.71 97.2467 242.12 93.678 250.551C92.9924 252.176 92.336 253.806 91.6914 255.441L59.4146 237.393C62.1277 234.156 64.6886 231.279 67.0326 228.662C71.7206 223.355 75.4534 219.108 77.2817 215.098C77.8428 214.074 78.4854 213.094 79.2038 212.165C79.9304 211.173 80.5809 210.355 80.5809 210.355C80.5809 210.355 78.2369 203.999 78.7819 202.002C79.3268 200.006 78.108 183.593 78.108 183.593C78.108 183.593 76.5199 172.42 74.9553 169.6C74.571 168.864 74.3971 168.043 74.4513 167.22C74.5275 164.643 76.0804 161.394 76.8422 157.632C77.8618 152.556 77.3696 150.046 80.5692 151.801C83.7687 153.555 82.2744 164.209 82.2744 164.209L87.1089 174.518C88.3805 172.026 87.1089 164.75 87.0445 163.03C87.0445 162.748 87.0445 162.28 86.9976 161.671C86.898 158.704 86.6929 152.528 86.9566 150.092C86.9566 149.956 86.9566 149.832 87.0034 149.719C87.3961 147.204 88.7966 139.201 89.6873 138.31C91.0117 136.99 93.1154 135.879 95.0961 138.874C96.2036 140.566 95.729 153.983 95.729 153.983C95.729 153.983 100.323 148.648 101.718 147.345C103.113 146.042 107.344 143.662 108.474 146.42C109.605 149.178 105.433 157.7 105.433 157.7C106.306 159.674 106.412 165.139 106.412 165.139C106.412 165.139 108.387 171.969 109.6 171.907H109.652C110.004 171.834 110.391 170.593 110.795 168.85C111.791 164.581 112.875 157.277 113.725 156.64L114.311 156.188C114.338 156.156 114.369 156.127 114.405 156.104L114.622 155.918C116.696 154.141 121.068 150.193 121.068 150.193C121.068 150.193 121.378 148.304 125.205 148.885C129.031 149.466 123.505 160.334 123.505 160.334C122.738 163.791 121.56 172.685 121.56 172.685C121.202 176.385 121.413 186.329 121.413 186.329C121.413 186.329 123.224 180.542 123.107 178.433C122.99 176.323 126.705 171.157 127.795 169.826C128.885 168.495 133.749 168.963 132.395 171.518C131.041 174.073 131.592 182.172 131.059 184.654Z" fill="white"/>
<path opacity="0.4" d="M77.2643 215.121C77.8254 214.097 78.468 213.116 79.1864 212.188C79.1864 212.188 77.2819 217.264 77.0943 219.966C76.9713 221.748 72.0958 224.833 67.0151 228.685C71.7324 223.378 75.436 219.131 77.2643 215.121Z" fill="white"/>
<path opacity="0.4" d="M79.186 212.188C79.9126 211.196 80.5631 210.378 80.5631 210.378C80.5631 210.378 78.2191 204.021 78.7641 202.025C79.3091 200.028 78.0902 183.616 78.0902 183.616C78.0902 183.616 76.5021 172.443 74.9375 169.623L78.5824 175.754C78.5824 175.754 78.225 180.598 79.2622 183.255C80.2994 185.911 81.6062 194.016 81.6062 194.016C81.6062 194.016 80.0709 200.829 80.5924 203.283C81.1139 205.736 83.4638 204.845 83.4638 204.845C83.4638 204.845 84.6182 209.334 79.186 212.188Z" fill="white"/>
<path opacity="0.4" d="M87.6889 166.036C90.2029 180.204 85.8723 176.284 84.3077 173.227C82.7431 170.17 79.0689 164.383 76.3029 165.619C75.5262 165.97 74.8755 166.535 74.4336 167.243C74.5098 164.665 76.0627 161.417 76.8245 157.655C77.8441 152.579 77.3519 150.069 80.5514 151.823C83.751 153.577 82.2567 164.231 82.2567 164.231L87.0912 174.541C88.3628 172.048 87.0912 164.773 87.0267 163.052C87.0267 162.77 87.0267 162.302 86.9799 161.693C87.1732 162.996 87.4076 164.446 87.6889 166.036Z" fill="white"/>
<path opacity="0.4" d="M93.842 152.037C93.842 152.037 91.1289 148.62 88.7731 148.794C88.3686 148.816 87.9794 148.95 87.6534 149.182C87.3275 149.413 87.0791 149.732 86.939 150.097C86.939 149.962 86.939 149.838 86.9858 149.725C87.3785 147.21 88.779 139.207 89.6697 138.315C90.9941 136.996 93.0978 135.885 95.0785 138.879C96.186 140.571 95.7114 153.989 95.7114 153.989C95.7114 153.989 100.306 148.653 101.7 147.351C103.095 146.048 107.326 143.668 108.457 146.426C109.588 149.184 105.416 157.706 105.416 157.706C106.289 159.68 106.394 165.145 106.394 165.145C106.394 165.145 108.369 171.975 109.582 171.913C106.91 176.752 105.128 166.053 105.128 166.053C105.527 163.842 104.109 159.048 104.249 157.785C104.39 156.521 101.788 152.054 97.4049 153.273C93.0216 154.491 96.186 171.163 96.186 171.163C95.3199 172.491 94.816 174.008 94.721 175.573C93.3674 173.966 94.721 169.369 94.721 169.369C93.5197 164.97 93.842 152.037 93.842 152.037Z" fill="white"/>
<path opacity="0.4" d="M114.27 156.172C112.401 158.061 112.658 162.838 110.754 168.833C111.75 164.564 112.834 157.26 113.684 156.623L114.27 156.172Z" fill="white"/>
<path opacity="0.4" d="M131.059 184.654C130.525 187.124 131.809 200.666 131.586 202.493C131.363 204.32 120.171 216.593 119.608 217.523C119.046 218.454 111.562 222.599 109.822 224.579C101.688 233.71 97.2465 242.12 93.6777 250.551C95.022 246.181 96.6444 241.894 98.5357 237.715C102.386 229.384 103.956 227.901 106.265 225.521C108.574 223.141 108.322 218.082 108.322 218.082C110.026 217.687 111.773 217.488 113.526 217.49C116.456 217.49 125.128 205.589 128.111 203.502C131.094 201.416 131.627 201.416 128.111 196.813C124.595 192.211 125.591 197.552 124.536 197.377C123.482 197.203 122.907 199.425 122.907 199.425C122.538 194.732 119.391 189.273 118.729 187.908C118.067 186.543 120.335 178.54 119.866 176.312C119.397 174.084 121.882 160.52 121.882 160.52C121.882 160.52 121.571 155.314 116.672 155.297C115.921 155.257 115.178 155.473 114.574 155.906C116.649 154.13 121.02 150.182 121.02 150.182C121.02 150.182 121.331 148.292 125.158 148.873C128.984 149.454 123.458 160.323 123.458 160.323C122.691 163.78 121.513 172.674 121.513 172.674C121.155 176.374 121.366 186.317 121.366 186.317C121.366 186.317 123.177 180.531 123.06 178.421C122.943 176.312 126.658 171.146 127.748 169.815C128.838 168.484 133.702 168.952 132.348 171.507C130.994 174.062 131.592 182.172 131.059 184.654Z" fill="white"/>
<path d="M91.6856 255.492C95.6645 245.379 100.112 235.509 109.822 224.607C111.58 222.656 119.04 218.511 119.608 217.552C120.177 216.593 131.369 204.343 131.586 202.521C131.803 200.699 130.526 187.152 131.059 184.682C131.592 182.211 130.971 174.067 132.319 171.529C133.667 168.991 128.803 168.529 127.719 169.837C126.635 171.146 122.931 176.357 123.031 178.444C123.13 180.531 121.337 186.34 121.337 186.34C121.337 186.34 121.126 176.397 121.484 172.697C121.484 172.697 122.656 163.803 123.429 160.345C123.429 160.345 128.949 149.471 125.129 148.896C121.308 148.321 120.991 150.204 120.991 150.204C120.991 150.204 114.891 155.72 113.684 156.623C112.477 157.525 110.83 171.625 109.617 171.89C108.404 172.155 106.377 165.122 106.377 165.122C106.377 165.122 106.271 159.657 105.398 157.683C105.398 157.683 109.564 149.184 108.439 146.403C107.314 143.623 103.083 146.031 101.683 147.328C100.282 148.625 95.6938 153.966 95.6938 153.966C95.6938 153.966 96.1685 140.538 95.0609 138.857C93.0802 135.851 90.9589 136.962 89.6521 138.293C88.7614 139.184 87.3609 147.187 86.9683 149.703C86.5756 152.218 86.9683 161.287 87.0093 163.013C87.0503 164.739 88.3454 172.009 87.0737 174.502L82.2392 164.192C82.2392 164.192 83.7394 153.526 80.534 151.784C77.3286 150.041 77.8267 152.556 76.807 157.615C75.7874 162.675 73.3613 166.786 74.9201 169.612C76.4789 172.437 78.0728 183.605 78.0728 183.605C78.0728 183.605 79.2799 200.017 78.7467 202.014C78.2134 204.01 80.5633 210.372 80.5633 210.372C80.5633 210.372 77.856 213.807 77.2641 215.115C74.5334 221.088 67.6244 227.619 59.4087 237.444" stroke="#263238" stroke-linecap="round" stroke-linejoin="round"/>
<path d="M95.7113 154C95.0308 154.969 94.6862 156.12 94.7269 157.288C94.7269 159.432 96.186 171.163 96.186 171.163C96.186 171.163 95.1253 172.37 95.0726 173.419" stroke="#263238" stroke-linecap="round" stroke-linejoin="round"/>
<path d="M121.349 186.312C121.509 188.293 122.039 190.23 122.914 192.031C124.285 194.636 123.84 196.075 123.371 197.614C123.057 198.964 122.89 200.342 122.873 201.726" stroke="#263238" stroke-linecap="round" stroke-linejoin="round"/>
<path d="M87.607 172.206C87.607 172.206 88.6267 175.319 86.7339 176.797" stroke="#263238" stroke-linecap="round" stroke-linejoin="round"/>
<path d="M109.635 171.89C109.635 171.89 109.834 173.114 108.035 173.227" stroke="#263238" stroke-linecap="round" stroke-linejoin="round"/>
<path d="M121.718 157.79C121.718 157.79 117.206 153.053 113.702 156.623" stroke="#263238" stroke-linecap="round" stroke-linejoin="round"/>
<path d="M103.435 155.128C103.435 155.128 101.355 152.596 99.5498 152.748C97.7449 152.9 95.3072 153.961 95.0317 155.354" stroke="#263238" stroke-linecap="round" stroke-linejoin="round"/>
<path d="M123.757 196.092C124.485 197.094 125.015 198.216 125.322 199.402" stroke="#263238" stroke-linecap="round" stroke-linejoin="round"/>
<path d="M112.037 176.837C110.637 179.346 111.305 183.605 110.789 184.772" stroke="#263238" stroke-linecap="round" stroke-linejoin="round"/>
<path d="M97.2 172.669C97.5282 174.112 96.491 176.464 96.3327 178.196C96.1745 179.927 97.6454 182.601 97.3758 185.031" stroke="#263238" stroke-linecap="round" stroke-linejoin="round"/>
<path d="M87.6893 178.579C87.6893 178.579 86.4645 181.298 86.5173 183.091C86.57 184.885 87.2322 188.816 87.2322 188.816" stroke="#263238" stroke-linecap="round" stroke-linejoin="round"/>
<path d="M78.6821 178.45C78.6821 178.45 78.2367 181.27 79.2681 183.255C80.2994 185.24 81.3015 189.459 81.3015 189.459" stroke="#263238" stroke-linecap="round" stroke-linejoin="round"/>
<path d="M80.5635 210.372C81.1036 210.228 81.5864 209.931 81.949 209.52C82.3116 209.108 82.5373 208.602 82.5969 208.065" stroke="#263238" stroke-linecap="round" stroke-linejoin="round"/>
<path d="M110.022 218.967C110.022 218.967 111.141 222.955 108.996 225.521" stroke="#263238" stroke-linecap="round" stroke-linejoin="round"/>
<path d="M74.4629 166.769C74.4629 166.769 77.6156 163.808 80.0006 166.307" stroke="#263238" stroke-linecap="round" stroke-linejoin="round"/>
<path d="M86.9858 149.725C86.9858 149.725 89.3298 147.362 92.0723 149.889" stroke="#263238" stroke-linecap="round" stroke-linejoin="round"/>
</svg>
